<?xml version="1.0" encoding="utf-8"?>
<!-- Generator: Adobe Illustrator 16.0.0, SVG Export Plug-In . SVG Version: 6.00 Build 0)  -->
<!DOCTYPE svg PUBLIC "-//W3C//DTD SVG 1.1//EN" "http://www.w3.org/Graphics/SVG/1.1/DTD/svg11.dtd">
<svg version="1.1" xmlns="http://www.w3.org/2000/svg" xmlns:xlink="http://www.w3.org/1999/xlink" x="0px" y="0px" width="37px"
	 height="35px" viewBox="0 0 37 35" enable-background="new 0 0 37 35" xml:space="preserve">
<g id="Capa_8">
	<rect x="0.002" fill="#FFFFFF" width="36.995" height="34.996"/>
</g>
<g id="Capa_9" display="none">
	<path display="inline" fill="#152951" d="M14.103,32.996c-0.21,0-0.42-0.055-0.609-0.16C12.941,32.52,0,24.997,0,14.103
		C0,6.331,6.331,0,14.103,0c7.774,0,14.105,6.331,14.105,14.103c0,10.133-12.902,18.358-13.451,18.705
		C14.557,32.93,14.333,32.996,14.103,32.996z M14.103,2.455c-6.422,0-11.647,5.226-11.647,11.647c0,8.21,9.101,14.596,11.62,16.201
		c2.507-1.731,11.677-8.595,11.677-16.201C25.752,7.681,20.527,2.455,14.103,2.455z M14.103,20.119
		c-3.316,0-6.013-2.698-6.013-6.017c0-3.316,2.704-6.009,6.013-6.009c3.312,0,6.016,2.7,6.016,6.016
		C20.118,17.424,17.415,20.119,14.103,20.119z M14.103,10.549c-1.959,0-3.554,1.595-3.554,3.561c0,1.958,1.595,3.553,3.554,3.553
		c1.962,0,3.557-1.595,3.557-3.553C17.66,12.144,16.064,10.549,14.103,10.549z"/>
</g>
<g id="Capa_5">
	<g>
		<path fill="#162A52" d="M31.924,4.462H4.154C1.839,4.462,0,6.302,0,8.616v18.098c0,2.313,1.839,4.153,4.154,4.153h27.71
			c2.313,0,4.154-1.84,4.154-4.153V8.616C36.077,6.302,34.178,4.462,31.924,4.462z M4.154,6.835h27.71c0.179,0,0.356,0,0.534,0.059
			l-14.36,11.037L3.679,6.895C3.857,6.835,4.035,6.835,4.154,6.835z M33.704,26.655c0,1.007-0.771,1.779-1.78,1.779H4.154
			c-1.009,0-1.78-0.772-1.78-1.779V8.853l15.665,12.044L33.704,8.913V26.655z"/>
	</g>
</g>
<g id="Capa_6" display="none">
	<g display="inline">
		<g>
			<path fill="#152951" d="M14.515,2.36c6.72,0,12.149,5.435,12.149,12.152s-5.429,12.146-12.149,12.146
				c-6.717,0-12.148-5.429-12.148-12.146S7.798,2.36,14.515,2.36 M14.515,0C6.51,0,0,6.51,0,14.512s6.51,14.512,14.515,14.512
				c8.001,0,14.512-6.51,14.512-14.512C29.023,6.51,22.514,0,14.515,0L14.515,0z"/>
			<g>
				<g>
					<g>
						<g>
							<path fill="#152951" d="M14.434,16.753c-0.213,0-0.461-0.082-0.627-0.214c-0.329-0.2-0.539-0.576-0.539-0.99V5.594
								c0-0.661,0.539-1.163,1.166-1.163c0.621,0,1.16,0.539,1.16,1.163v8.171l4.645-2.16c0.58-0.251,1.285,0,1.573,0.58
								c0.248,0.58,0,1.289-0.58,1.58l-6.303,2.865C14.763,16.709,14.597,16.753,14.434,16.753z"/>
						</g>
					</g>
				</g>
			</g>
		</g>
	</g>
</g>
<g id="Capa_7" display="none">
	<g transform="translate(0,-952.36218)" display="inline">
		<path fill="#152951" d="M4.044,952.362c-1.668,0-3.039,1.375-3.039,3.039v28.875c0,1.664,1.375,3.042,3.039,3.042h15.2
			c1.661,0,3.039-1.378,3.039-3.042v-28.875c0-1.668-1.378-3.039-3.039-3.039H4.044z M4.044,954.64h15.2
			c0.439,0,0.763,0.319,0.763,0.761v0.761H3.283v-0.761C3.283,954.959,3.606,954.64,4.044,954.64z M3.283,958.44h16.724v20.516
			H3.283V958.44z M3.283,981.237h16.724v3.038c0,0.442-0.32,0.757-0.763,0.757h-15.2c-0.442,0-0.762-0.314-0.762-0.757V981.237z
			 M11.645,981.998c-0.631,0-1.141,0.513-1.141,1.142c0,0.63,0.509,1.14,1.141,1.14s1.136-0.51,1.136-1.14
			C12.781,982.507,12.272,981.998,11.645,981.998z"/>
	</g>
</g>
</svg>
