<?xml version="1.0" encoding="utf-8"?>
<!-- Generator: Adobe Illustrator 16.0.0, SVG Export Plug-In . SVG Version: 6.00 Build 0)  -->
<!DOCTYPE svg PUBLIC "-//W3C//DTD SVG 1.1//EN" "http://www.w3.org/Graphics/SVG/1.1/DTD/svg11.dtd">
<svg version="1.1" id="Capa_1" xmlns="http://www.w3.org/2000/svg" xmlns:xlink="http://www.w3.org/1999/xlink" x="0px" y="0px"
	 width="37px" height="35px" viewBox="0 0 37 35" enable-background="new 0 0 37 35" xml:space="preserve">
<g id="Capa_9" display="none">
	<path display="inline" fill="#152951" d="M14.103,32.996c-0.21,0-0.42-0.055-0.609-0.16C12.941,32.52,0,24.997,0,14.103
		C0,6.331,6.331,0,14.103,0c7.774,0,14.105,6.331,14.105,14.103c0,10.133-12.902,18.358-13.451,18.706
		C14.557,32.93,14.333,32.996,14.103,32.996z M14.103,2.455c-6.422,0-11.647,5.226-11.647,11.647c0,8.21,9.101,14.595,11.62,16.201
		c2.507-1.73,11.677-8.595,11.677-16.201C25.752,7.681,20.527,2.455,14.103,2.455z M14.103,20.119c-3.316,0-6.013-2.698-6.013-6.017
		c0-3.316,2.704-6.009,6.013-6.009c3.312,0,6.016,2.7,6.016,6.016C20.118,17.424,17.415,20.119,14.103,20.119z M14.103,10.549
		c-1.959,0-3.554,1.595-3.554,3.561c0,1.958,1.595,3.553,3.554,3.553c1.962,0,3.557-1.595,3.557-3.553
		C17.66,12.144,16.064,10.549,14.103,10.549z"/>
</g>
<g id="Capa_6" display="none">
	<g display="inline">
		<g>
			<path fill="#152951" d="M14.515,2.36c6.719,0,12.149,5.435,12.149,12.152c0,6.716-5.43,12.146-12.149,12.146
				c-6.717,0-12.148-5.43-12.148-12.146C2.367,7.795,7.798,2.36,14.515,2.36 M14.515,0C6.51,0,0,6.51,0,14.512
				c0,8.001,6.51,14.511,14.515,14.511c8,0,14.512-6.51,14.512-14.511C29.023,6.51,22.514,0,14.515,0L14.515,0z"/>
			<g>
				<g>
					<g>
						<g>
							<path fill="#152951" d="M14.434,16.753c-0.213,0-0.461-0.082-0.627-0.214c-0.329-0.2-0.539-0.576-0.539-0.99V5.594
								c0-0.661,0.539-1.163,1.166-1.163c0.621,0,1.16,0.539,1.16,1.163v8.171l4.644-2.16c0.58-0.251,1.285,0,1.574,0.58
								c0.248,0.58,0,1.289-0.58,1.58l-6.303,2.865C14.763,16.709,14.597,16.753,14.434,16.753z"/>
						</g>
					</g>
				</g>
			</g>
		</g>
	</g>
</g>
<g id="Capa_7" display="none">
	<g transform="translate(0,-952.36218)" display="inline">
		<path fill="#152951" d="M4.044,952.362c-1.668,0-3.039,1.375-3.039,3.039v28.875c0,1.664,1.375,3.041,3.039,3.041h15.2
			c1.66,0,3.039-1.377,3.039-3.041v-28.875c0-1.668-1.379-3.039-3.039-3.039H4.044z M4.044,954.64h15.2
			c0.439,0,0.763,0.319,0.763,0.761v0.761H3.283v-0.761C3.283,954.959,3.606,954.64,4.044,954.64z M3.283,958.44h16.724v20.516
			H3.283V958.44z M3.283,981.237h16.724v3.037c0,0.443-0.319,0.758-0.763,0.758h-15.2c-0.442,0-0.762-0.314-0.762-0.758
			L3.283,981.237L3.283,981.237z M11.645,981.998c-0.631,0-1.141,0.513-1.141,1.142c0,0.631,0.509,1.142,1.141,1.142
			s1.136-0.511,1.136-1.142C12.781,982.507,12.272,981.998,11.645,981.998z"/>
	</g>
</g>
<g>
	<path fill="#162A52" d="M28.229,9.032c0,0.871-0.719,1.574-1.606,1.574l0,0c-0.891,0-1.61-0.703-1.61-1.574l0,0
		c0-0.87,0.72-1.571,1.61-1.571l0,0C27.511,7.461,28.229,8.163,28.229,9.032L28.229,9.032z"/>
	<path fill="none" stroke="#162A52" stroke-width="2" stroke-linecap="round" stroke-linejoin="round" stroke-miterlimit="10" d="
		M32.352,27.726c0,2.435-1.975,4.409-4.409,4.409H6.635c-2.437,0-4.409-1.975-4.409-4.409V7.704c0-2.434,1.972-4.408,4.409-4.408
		h21.307c2.435,0,4.409,1.974,4.409,4.408V27.726z"/>
	<path fill="none" stroke="#162A52" stroke-width="2" stroke-linecap="round" stroke-linejoin="round" stroke-miterlimit="10" d="
		M24.085,19.645c0,2.434-1.975,4.408-4.408,4.408h-4.776c-2.437,0-4.408-1.975-4.408-4.408v-3.858c0-2.435,1.972-4.409,4.408-4.409
		h4.776c2.434,0,4.408,1.974,4.408,4.409V19.645z"/>
</g>
</svg>
