<?xml version="1.0" encoding="utf-8"?>
<!-- Generator: Adobe Illustrator 16.0.0, SVG Export Plug-In . SVG Version: 6.00 Build 0)  -->
<!DOCTYPE svg PUBLIC "-//W3C//DTD SVG 1.1//EN" "http://www.w3.org/Graphics/SVG/1.1/DTD/svg11.dtd">
<svg version="1.1" id="Capa_1" xmlns="http://www.w3.org/2000/svg" xmlns:xlink="http://www.w3.org/1999/xlink" x="0px" y="0px"
	 width="37px" height="35px" viewBox="0 0 37 35" enable-background="new 0 0 37 35" xml:space="preserve">
<g id="Capa_9" display="none">
	<path display="inline" fill="#152951" d="M14.103,32.996c-0.21,0-0.42-0.055-0.609-0.16C12.941,32.52,0,24.997,0,14.103
		C0,6.331,6.331,0,14.103,0c7.774,0,14.105,6.331,14.105,14.103c0,10.133-12.902,18.358-13.451,18.706
		C14.557,32.93,14.333,32.996,14.103,32.996z M14.103,2.455c-6.422,0-11.647,5.226-11.647,11.647c0,8.21,9.101,14.595,11.62,16.201
		c2.507-1.73,11.677-8.595,11.677-16.201C25.752,7.681,20.527,2.455,14.103,2.455z M14.103,20.119c-3.316,0-6.013-2.698-6.013-6.017
		c0-3.316,2.704-6.009,6.013-6.009c3.312,0,6.016,2.7,6.016,6.016C20.118,17.424,17.415,20.119,14.103,20.119z M14.103,10.549
		c-1.959,0-3.554,1.595-3.554,3.561c0,1.958,1.595,3.553,3.554,3.553c1.962,0,3.557-1.595,3.557-3.553
		C17.66,12.144,16.064,10.549,14.103,10.549z"/>
</g>
<g id="Capa_6" display="none">
	<g display="inline">
		<g>
			<path fill="#152951" d="M14.515,2.36c6.719,0,12.149,5.435,12.149,12.152c0,6.716-5.43,12.146-12.149,12.146
				c-6.717,0-12.148-5.43-12.148-12.146C2.367,7.795,7.798,2.36,14.515,2.36 M14.515,0C6.51,0,0,6.51,0,14.512
				c0,8.001,6.51,14.511,14.515,14.511c8,0,14.512-6.51,14.512-14.511C29.023,6.51,22.514,0,14.515,0L14.515,0z"/>
			<g>
				<g>
					<g>
						<g>
							<path fill="#152951" d="M14.434,16.753c-0.213,0-0.461-0.082-0.627-0.214c-0.329-0.2-0.539-0.576-0.539-0.99V5.594
								c0-0.661,0.539-1.163,1.166-1.163c0.621,0,1.16,0.539,1.16,1.163v8.171l4.644-2.16c0.58-0.251,1.285,0,1.574,0.58
								c0.248,0.58,0,1.289-0.58,1.58l-6.303,2.865C14.763,16.709,14.597,16.753,14.434,16.753z"/>
						</g>
					</g>
				</g>
			</g>
		</g>
	</g>
</g>
<g id="Capa_7" display="none">
	<g transform="translate(0,-952.36218)" display="inline">
		<path fill="#152951" d="M4.044,952.362c-1.668,0-3.039,1.375-3.039,3.039v28.875c0,1.664,1.375,3.041,3.039,3.041h15.2
			c1.66,0,3.039-1.377,3.039-3.041v-28.875c0-1.668-1.379-3.039-3.039-3.039H4.044z M4.044,954.64h15.2
			c0.439,0,0.763,0.319,0.763,0.761v0.761H3.283v-0.761C3.283,954.959,3.606,954.64,4.044,954.64z M3.283,958.44h16.724v20.516
			H3.283V958.44z M3.283,981.237h16.724v3.037c0,0.443-0.319,0.758-0.763,0.758h-15.2c-0.442,0-0.762-0.314-0.762-0.758
			L3.283,981.237L3.283,981.237z M11.645,981.998c-0.631,0-1.141,0.513-1.141,1.142c0,0.631,0.509,1.141,1.141,1.141
			s1.136-0.51,1.136-1.141C12.781,982.507,12.272,981.998,11.645,981.998z"/>
	</g>
</g>
<path fill="none" stroke="#162A52" stroke-width="2" stroke-linecap="round" stroke-linejoin="round" stroke-miterlimit="10" d="
	M29.869,8.792c0.678-0.426,1.265-0.956,1.757-1.595c0.497-0.637,0.861-1.355,1.106-2.155c-1.281,0.8-2.655,1.351-4.129,1.651
	c-0.607-0.679-1.319-1.202-2.143-1.577c-0.815-0.373-1.688-0.564-2.608-0.564c-1.153,0-2.237,0.305-3.238,0.919
	c-1.001,0.611-1.794,1.435-2.375,2.46c-0.577,1.026-0.869,2.151-0.869,3.378c0,0.524,0.048,1.038,0.146,1.541
	c-2.658-0.151-5.155-0.855-7.499-2.107C7.723,9.519,5.756,7.869,4.114,5.791C3.533,6.841,3.244,7.966,3.244,9.17
	c0,1.15,0.261,2.221,0.776,3.209c0.519,0.988,1.231,1.792,2.123,2.418c-1.062-0.025-2.056-0.313-2.972-0.861v0.111
	c0.024,1.053,0.26,2.043,0.708,2.981c0.446,0.943,1.065,1.729,1.864,2.367c0.801,0.641,1.68,1.062,2.645,1.257
	c-0.556,0.153-1.123,0.229-1.703,0.229c-0.41,0-0.807-0.043-1.197-0.113c0.416,1.347,1.17,2.453,2.287,3.322
	c1.108,0.862,2.366,1.317,3.766,1.368c-1.135,0.902-2.392,1.604-3.766,2.103c-1.378,0.499-2.814,0.751-4.313,0.751
	c-0.53,0-1.049-0.021-1.556-0.075c1.471,0.979,3.04,1.714,4.708,2.214c1.716,0.525,3.477,0.787,5.287,0.787
	c2.852,0,5.495-0.575,7.934-1.725c2.22-1.081,4.154-2.578,5.795-4.506c1.523-1.798,2.704-3.854,3.55-6.154
	c0.798-2.255,1.199-4.506,1.199-6.757v-0.863c1.277-0.978,2.364-2.154,3.261-3.53C32.452,8.253,31.197,8.62,29.869,8.792z"/>
</svg>
