<?xml version="1.0" encoding="UTF-8"?>
<!-- Generator: Adobe Illustrator 21.1.0, SVG Export Plug-In . SVG Version: 6.00 Build 0)  -->
<svg version="1.1" id="Layer_1" xmlns="http://www.w3.org/2000/svg" xmlns:xlink="http://www.w3.org/1999/xlink" x="0px" y="0px" viewBox="0 0 54.8 65.4" style="enable-background:new 0 0 54.8 65.4;" xml:space="preserve">
<style type="text/css">
	.st0{fill:#FFFFFF;}
</style>
<g>
	<path class="st0" d="M51.3,45l-1.5-12.9c0-10.1-7-19-16.6-21.6V6.3c0-3.2-2.6-5.8-5.8-5.8c-3.2,0-5.8,2.6-5.8,5.8v4.2   C11.9,13.1,5,22,5,32.1L3.5,45c-1.8,1.2-3,3.2-3,5.5v0.5c0,4.5,4.2,4.5,6.5,4.5h10c0.7,5.4,5.1,9.5,10.4,9.5s9.7-4.1,10.4-9.5h10   c2.3,0,6.5,0,6.5-4.5v-0.5C54.3,48.2,53.2,46.2,51.3,45z M27.4,61.9c-3.6,0-6.7-2.8-7.4-6.5h14.7C34.1,59.1,31.1,61.9,27.4,61.9z    M51.3,50.9c0,0.9,0,1.5-3.5,1.5h-9.9v0h-21v0H7c-3.5,0-3.5-0.5-3.5-1.5v-0.5c0-1.4,0.8-2.6,2-3.2l0.7-0.4l1.7-14.6l0-0.2   c0-9.2,6.5-17.2,15.4-19l1.2-0.2V6.3c0-1.5,1.3-2.8,2.8-2.8c1.5,0,2.8,1.3,2.8,2.8v6.6l1.2,0.2c8.9,1.9,15.4,9.9,15.4,19l1.7,14.8   l0.7,0.4c1.2,0.6,2,1.8,2,3.2V50.9z"/>
	<path class="st0" d="M27.4,65.4c-5.3,0-9.9-4.1-10.8-9.5H7c-2.3,0-7,0-7-5v-0.5c0-2.3,1.1-4.4,3-5.7L4.5,32   c0-10.1,6.9-19.1,16.6-21.9V6.3c0-3.5,2.8-6.3,6.3-6.3c3.5,0,6.3,2.8,6.3,6.3v3.8c9.8,2.8,16.6,11.8,16.6,22l1.5,12.7   c1.9,1.3,3,3.4,3,5.7v0.5c0,5-4.7,5-7,5h-9.6C37.3,61.4,32.7,65.4,27.4,65.4z M27.4,1c-2.9,0-5.3,2.4-5.3,5.3v4.2   c0,0.2-0.2,0.4-0.4,0.5C12.2,13.5,5.5,22.2,5.5,32.1L4,45.1c0,0.1-0.1,0.3-0.2,0.4c-1.7,1.1-2.7,3-2.7,5v0.5c0,3.7,3.1,4,6,4h10   c0.3,0,0.5,0.2,0.5,0.4c0.7,5.2,4.9,9.1,9.9,9.1c4.9,0,9.2-3.9,9.9-9.1c0-0.2,0.2-0.4,0.5-0.4h10c2.9,0,6-0.3,6-4v-0.5   c0-2-1-3.9-2.7-5c-0.1-0.1-0.2-0.2-0.2-0.4l-1.5-12.9c0-9.9-6.7-18.6-16.3-21.2c-0.2-0.1-0.4-0.3-0.4-0.5V6.3   C32.7,3.4,30.3,1,27.4,1z M27.4,62.4c-3.8,0-7.1-2.9-7.9-6.9c0-0.1,0-0.3,0.1-0.4c0.1-0.1,0.2-0.2,0.4-0.2h14.7   c0.1,0,0.3,0.1,0.4,0.2c0.1,0.1,0.1,0.3,0.1,0.4C34.5,59.5,31.2,62.4,27.4,62.4z M20.7,55.9c0.8,3.2,3.6,5.5,6.7,5.5   s5.9-2.3,6.7-5.5H20.7z M47.8,52.9h-9.9c-0.1,0-0.1,0-0.2,0H17.1c-0.1,0-0.1,0-0.2,0H7c-3.4,0-4-0.5-4-2v-0.5   c0-1.6,0.9-2.9,2.3-3.6l0.5-0.2l1.7-14.5c0-9.4,6.7-17.6,15.8-19.5l0.8-0.2V6.3c0-1.8,1.5-3.3,3.3-3.3c1.8,0,3.3,1.5,3.3,3.3v6.2   l0.8,0.2c9.2,1.9,15.8,10.1,15.8,19.5L49,46.6l0.5,0.2c1.4,0.7,2.3,2.1,2.3,3.6v0.5C51.8,52.4,51.2,52.9,47.8,52.9z M38.1,51.9h9.7   c3,0,3-0.3,3-1v-0.5c0-1.2-0.7-2.2-1.7-2.7l-0.7-0.4c-0.2-0.1-0.3-0.2-0.3-0.4l-1.7-14.8c0-9-6.3-16.8-15-18.6l-1.2-0.2   c-0.2,0-0.4-0.3-0.4-0.5V6.3c0-1.3-1-2.3-2.3-2.3c-1.3,0-2.3,1-2.3,2.3v6.6c0,0.2-0.2,0.4-0.4,0.5l-1.2,0.2   c-8.7,1.8-15,9.6-15,18.5l0,0.2L6.8,47c0,0.2-0.1,0.3-0.3,0.4l-0.7,0.4C4.7,48.3,4,49.3,4,50.5v0.5c0,0.7,0,1,3,1h9.7   c0.1,0,0.1,0,0.2,0h21C38,51.9,38,51.9,38.1,51.9z"/>
</g>
</svg>