<?xml version="1.0" encoding="utf-8"?>
<!-- Generator: Adobe Illustrator 16.0.0, SVG Export Plug-In . SVG Version: 6.00 Build 0)  -->
<!DOCTYPE svg PUBLIC "-//W3C//DTD SVG 1.1//EN" "http://www.w3.org/Graphics/SVG/1.1/DTD/svg11.dtd">
<svg version="1.1" id="Capa_2" xmlns="http://www.w3.org/2000/svg" xmlns:xlink="http://www.w3.org/1999/xlink" x="0px" y="0px"
	 width="73.847px" height="66.816px" viewBox="0 0 73.847 66.816" enable-background="new 0 0 73.847 66.816" xml:space="preserve">
<g>
	<g>
		<g>
			<path fill="#FF6B00" d="M4.186,47.098c2.409-2.04,4.081-6.274,3.717-9.407c0,0-1.342-11.536,2.902-19.696
				C19.318,1.629,39.486-4.736,55.853,3.775c16.364,8.513,22.73,28.682,14.219,45.048c-8.515,16.366-28.683,22.73-45.046,14.217
				c-3.184-1.654-4.046-2.405-4.046-2.405c-2.378-2.072-6.86-4.261-9.959-4.859l-8.272-1.598c-3.098-0.601-3.662-2.758-1.256-4.799
				L4.186,47.098z"/>
		</g>
	</g>
	<g>
		<g>
			<path fill="#FFFFFF" d="M30.128,33.609c0.483,0.641,0.726,1.424,0.726,2.35c0,1.281-0.478,2.296-1.431,3.043
				c-0.954,0.747-2.25,1.121-3.887,1.121h-7.218V24.918h7.004c1.581,0,2.83,0.353,3.748,1.057s1.378,1.669,1.378,2.894
				c0,0.797-0.211,1.495-0.63,2.093c-0.421,0.598-1.001,1.033-1.741,1.303C28.96,32.521,29.644,32.969,30.128,33.609z
				 M21.564,31.111h3.203c0.854,0,1.491-0.146,1.911-0.438c0.42-0.292,0.63-0.744,0.63-1.356c0-0.626-0.21-1.089-0.63-1.388
				s-1.058-0.449-1.911-0.449h-3.203V31.111z M27.105,37.102c0.406-0.307,0.609-0.794,0.609-1.463c0-0.684-0.203-1.182-0.609-1.495
				c-0.405-0.313-1.057-0.47-1.954-0.47h-3.587v3.887h3.587C26.049,37.561,26.7,37.407,27.105,37.102z"/>
			<path fill="#FFFFFF" d="M32.968,40.123V24.405h3.225v15.718H32.968z"/>
			<path fill="#FFFFFF" d="M40.966,39.61c-0.862-0.455-1.523-1.11-1.986-1.965c-0.463-0.854-0.694-1.851-0.694-2.989
				s0.231-2.136,0.694-2.99c0.463-0.854,1.124-1.509,1.986-1.964c0.861-0.456,1.868-0.684,3.021-0.684
				c1.139,0,2.136,0.228,2.989,0.684c0.854,0.456,1.513,1.11,1.976,1.964c0.463,0.854,0.694,1.852,0.694,2.99
				s-0.231,2.136-0.694,2.989c-0.463,0.854-1.121,1.51-1.976,1.965c-0.854,0.456-1.851,0.684-2.989,0.684
				C42.834,40.294,41.827,40.066,40.966,39.61z M45.813,37.048c0.42-0.526,0.63-1.324,0.63-2.392c0-1.054-0.21-1.848-0.63-2.381
				c-0.42-0.534-1.029-0.801-1.826-0.801c-0.812,0-1.431,0.267-1.858,0.801c-0.427,0.533-0.641,1.327-0.641,2.381
				c0,2.121,0.833,3.182,2.499,3.182C44.784,37.838,45.394,37.575,45.813,37.048z"/>
			<path fill="#FFFFFF" d="M62.673,29.296v10.336c0,1.723-0.498,3.032-1.495,3.93c-0.996,0.896-2.448,1.345-4.356,1.345
				c-1.723,0-3.218-0.334-4.484-1.003l0.491-2.393c1.31,0.655,2.605,0.982,3.887,0.982c0.926,0,1.615-0.217,2.071-0.651
				s0.684-1.093,0.684-1.975v-1.88c-0.342,0.527-0.818,0.965-1.431,1.313s-1.289,0.523-2.029,0.523
				c-0.939,0-1.772-0.225-2.498-0.673c-0.727-0.448-1.296-1.082-1.709-1.9s-0.619-1.762-0.619-2.83c0-1.067,0.206-2.011,0.619-2.829
				c0.413-0.819,0.982-1.453,1.709-1.901c0.726-0.448,1.559-0.673,2.498-0.673c0.755,0,1.438,0.164,2.051,0.491
				c0.611,0.328,1.081,0.769,1.409,1.324v-1.538H62.673z M58.797,36.589c0.448-0.52,0.673-1.242,0.673-2.168
				c0-0.911-0.221-1.626-0.662-2.146s-1.061-0.779-1.857-0.779c-0.798,0-1.424,0.26-1.88,0.779s-0.684,1.234-0.684,2.146
				s0.228,1.631,0.684,2.157s1.082,0.79,1.88,0.79C57.732,37.368,58.349,37.108,58.797,36.589z"/>
		</g>
	</g>
</g>
</svg>
