<?xml version="1.0" encoding="utf-8"?>
<!-- Generator: Adobe Illustrator 16.0.0, SVG Export Plug-In . SVG Version: 6.00 Build 0)  -->
<!DOCTYPE svg PUBLIC "-//W3C//DTD SVG 1.1//EN" "http://www.w3.org/Graphics/SVG/1.1/DTD/svg11.dtd">
<svg version="1.1" id="Capa_1" xmlns="http://www.w3.org/2000/svg" xmlns:xlink="http://www.w3.org/1999/xlink" x="0px" y="0px"
	 width="86.632px" height="31.511px" viewBox="0 0 86.632 31.511" enable-background="new 0 0 86.632 31.511" xml:space="preserve">
<g>
	<polygon fill="#FFFFFF" points="82,1.204 82,20.158 61.695,0.061 61.695,6.896 86.632,31.466 86.632,1.204 	"/>
	<path fill="#FFFFFF" d="M45.898,25.729c-5.648-0.045-10.056-4.436-10.019-9.973c0.039-5.693,4.519-10.113,10.193-10.058
		c5.383,0.054,9.92,4.679,9.879,10.071c-0.041,5.517-4.5,9.961-9.969,9.959H45.898 M30.978,15.734
		c-0.028,8.222,6.667,14.782,14.993,14.938c7.584,0.141,15.203-6.783,14.906-14.89c0.027-8.146-6.586-14.882-14.703-14.98
		c-0.064-0.001-0.129-0.001-0.189-0.001C37.664,0.803,31.006,7.405,30.978,15.734"/>
	<polygon fill="#FFFFFF" points="0,31.511 4.668,27.387 4.668,4.126 0,0 	"/>
	<path fill="#FFFFFF" d="M27.634,24.328c-1.489,0.891-3.228,1.401-5.081,1.401h-0.084c-5.646-0.045-10.056-4.436-10.02-9.973
		c0.039-5.693,4.52-10.113,10.193-10.058c1.756,0.018,3.418,0.522,4.865,1.381l3.816-3.386c-2.418-1.78-5.381-2.854-8.58-2.892
		c-0.064-0.001-0.127-0.001-0.189-0.001C14.234,0.803,7.578,7.405,7.549,15.734c-0.029,8.222,6.668,14.782,14.992,14.938
		c3.133,0.059,6.271-1.09,8.854-3.027L27.634,24.328z"/>
	<polygon fill="#FFFFFF" points="62.355,27.095 62.638,27.095 62.638,28.435 64.339,28.435 64.339,27.095 64.625,27.095 
		64.625,30.137 64.339,30.137 64.339,28.693 62.638,28.693 62.638,30.137 62.355,30.137 	"/>
	<path fill="#FFFFFF" d="M66.033,28.616c0-0.232,0.039-0.445,0.115-0.641c0.078-0.195,0.186-0.363,0.322-0.504
		c0.137-0.143,0.305-0.254,0.496-0.334c0.193-0.08,0.406-0.121,0.639-0.121s0.443,0.041,0.639,0.121
		c0.193,0.08,0.357,0.191,0.496,0.334c0.137,0.141,0.244,0.309,0.322,0.504c0.076,0.195,0.115,0.408,0.115,0.641
		s-0.039,0.445-0.115,0.643c-0.078,0.195-0.186,0.365-0.322,0.506c-0.139,0.143-0.303,0.253-0.496,0.331
		c-0.195,0.079-0.406,0.119-0.639,0.119s-0.445-0.04-0.639-0.119c-0.191-0.078-0.359-0.188-0.496-0.331
		c-0.137-0.141-0.244-0.311-0.322-0.506C66.072,29.062,66.033,28.849,66.033,28.616 M66.316,28.616c0,0.189,0.031,0.365,0.09,0.527
		c0.061,0.164,0.146,0.306,0.258,0.426c0.113,0.121,0.248,0.215,0.406,0.283c0.16,0.068,0.338,0.104,0.535,0.104
		s0.377-0.035,0.535-0.104c0.16-0.068,0.295-0.162,0.406-0.283c0.111-0.12,0.197-0.262,0.258-0.426
		c0.061-0.162,0.09-0.338,0.09-0.527s-0.029-0.365-0.09-0.528s-0.146-0.306-0.258-0.425c-0.111-0.121-0.246-0.216-0.406-0.285
		c-0.158-0.068-0.338-0.103-0.535-0.103s-0.375,0.034-0.535,0.103c-0.158,0.069-0.293,0.164-0.406,0.285
		c-0.111,0.119-0.197,0.262-0.258,0.425C66.347,28.251,66.316,28.427,66.316,28.616"/>
	<polygon fill="#FFFFFF" points="71.089,27.353 70.05,27.353 70.05,27.095 72.414,27.095 72.414,27.353 71.375,27.353 
		71.375,30.137 71.089,30.137 	"/>
	<polygon fill="#FFFFFF" points="73.654,27.095 75.515,27.095 75.515,27.353 73.939,27.353 73.939,28.435 75.417,28.435 
		75.417,28.693 73.939,28.693 73.939,29.88 75.583,29.88 75.583,30.137 73.654,30.137 	"/>
	<polygon fill="#FFFFFF" points="77.062,27.095 77.345,27.095 77.345,29.88 78.763,29.88 78.763,30.137 77.062,30.137 	"/>
</g>
</svg>
