<?xml version="1.0" encoding="utf-8"?>
<!-- Generator: Adobe Illustrator 16.0.0, SVG Export Plug-In . SVG Version: 6.00 Build 0)  -->
<!DOCTYPE svg PUBLIC "-//W3C//DTD SVG 1.1 Tiny//EN" "http://www.w3.org/Graphics/SVG/1.1/DTD/svg11-tiny.dtd">
<svg version="1.1" baseProfile="tiny" id="Capa_1" xmlns="http://www.w3.org/2000/svg" xmlns:xlink="http://www.w3.org/1999/xlink"
	 x="0px" y="0px" width="170.457px" height="62px" viewBox="0 0 170.457 62" overflow="scroll" xml:space="preserve">
<g>
	<polygon fill="#C0007E" points="161.342,2.369 161.342,39.663 121.393,0.119 121.393,13.568 170.457,61.911 170.457,2.369 	"/>
	<path fill="#C0007E" d="M90.308,50.625c-11.11-0.089-19.786-8.728-19.713-19.621c0.078-11.203,8.892-19.899,20.056-19.79
		c10.593,0.105,19.52,9.205,19.439,19.815c-0.082,10.854-8.854,19.6-19.616,19.596H90.308 M60.952,30.959
		c-0.056,16.177,13.118,29.085,29.5,29.393c14.921,0.276,29.912-13.347,29.328-29.297C119.834,15.028,106.822,1.772,90.85,1.58
		c-0.126-0.001-0.25-0.001-0.372-0.001C74.107,1.58,61.008,14.57,60.952,30.959"/>
	<polygon fill="#C0007E" points="0,62 9.187,53.886 9.187,8.117 0,0 	"/>
	<path fill="#C0007E" d="M54.373,47.867c-2.931,1.753-6.351,2.758-9.997,2.758h-0.167C33.1,50.536,24.425,41.897,24.497,31.004
		c0.076-11.203,8.891-19.899,20.057-19.79c3.453,0.034,6.725,1.028,9.571,2.717l7.51-6.661c-4.756-3.504-10.588-5.615-16.883-5.69
		c-0.126-0.001-0.248-0.001-0.373-0.001C28.008,1.58,14.911,14.57,14.855,30.959c-0.058,16.177,13.118,29.085,29.497,29.393
		c6.164,0.115,12.338-2.145,17.423-5.957L54.373,47.867z"/>
	<polygon fill="#C0007E" points="122.689,53.312 123.247,53.312 123.247,55.947 126.596,55.947 126.596,53.312 127.155,53.312 
		127.155,59.297 126.596,59.297 126.596,56.457 123.247,56.457 123.247,59.297 122.689,59.297 	"/>
	<path fill="#C0007E" d="M129.926,56.305c0-0.457,0.077-0.876,0.229-1.261c0.152-0.384,0.363-0.715,0.633-0.991
		c0.271-0.28,0.599-0.499,0.976-0.657c0.381-0.157,0.8-0.238,1.257-0.238s0.872,0.081,1.257,0.238
		c0.38,0.158,0.703,0.377,0.976,0.657c0.271,0.276,0.48,0.607,0.634,0.991c0.152,0.385,0.228,0.804,0.228,1.261
		s-0.075,0.876-0.228,1.265c-0.153,0.384-0.362,0.719-0.634,0.995c-0.272,0.28-0.596,0.498-0.976,0.651
		c-0.385,0.155-0.8,0.234-1.257,0.234s-0.876-0.079-1.257-0.234c-0.377-0.153-0.705-0.371-0.976-0.651
		c-0.27-0.276-0.48-0.611-0.633-0.995C130.003,57.181,129.926,56.762,129.926,56.305 M130.483,56.305
		c0,0.373,0.062,0.719,0.177,1.038c0.119,0.322,0.29,0.601,0.509,0.837c0.221,0.238,0.486,0.423,0.8,0.558
		c0.313,0.135,0.662,0.204,1.051,0.204c0.39,0,0.741-0.069,1.053-0.204c0.315-0.135,0.58-0.319,0.8-0.558
		c0.219-0.236,0.388-0.515,0.507-0.837c0.119-0.319,0.177-0.665,0.177-1.038s-0.058-0.719-0.177-1.039
		c-0.119-0.321-0.288-0.602-0.507-0.836c-0.22-0.238-0.484-0.425-0.8-0.562c-0.312-0.135-0.663-0.201-1.053-0.201
		c-0.389,0-0.738,0.066-1.051,0.201c-0.313,0.137-0.579,0.323-0.8,0.562c-0.219,0.234-0.39,0.515-0.509,0.836
		C130.545,55.586,130.483,55.932,130.483,56.305"/>
	<polygon fill="#C0007E" points="139.877,53.818 137.831,53.818 137.831,53.312 142.48,53.312 142.48,53.818 140.437,53.818 
		140.437,59.297 139.877,59.297 	"/>
	<polygon fill="#C0007E" points="144.921,53.312 148.583,53.312 148.583,53.818 145.482,53.818 145.482,55.947 148.391,55.947 
		148.391,56.457 145.482,56.457 145.482,58.791 148.72,58.791 148.72,59.297 144.921,59.297 	"/>
	<polygon fill="#C0007E" points="151.629,53.312 152.184,53.312 152.184,58.791 154.974,58.791 154.974,59.297 151.629,59.297 	"/>
</g>
</svg>
