<?xml version="1.0" encoding="utf-8"?>
<!-- Generator: Adobe Illustrator 16.0.0, SVG Export Plug-In . SVG Version: 6.00 Build 0)  -->
<!DOCTYPE svg PUBLIC "-//W3C//DTD SVG 1.1 Tiny//EN" "http://www.w3.org/Graphics/SVG/1.1/DTD/svg11-tiny.dtd">
<svg version="1.1" baseProfile="tiny" id="Capa_1" xmlns="http://www.w3.org/2000/svg" xmlns:xlink="http://www.w3.org/1999/xlink"
	 x="0px" y="0px" width="86.633px" height="31.511px" viewBox="0 0 86.633 31.511" overflow="scroll" xml:space="preserve">
<g>
	<polygon fill="#C0007E" points="82,1.204 82,20.158 61.696,0.061 61.696,6.896 86.633,31.466 86.633,1.204 	"/>
	<path fill="#C0007E" d="M45.898,25.729c-5.647-0.045-10.056-4.436-10.019-9.972c0.04-5.694,4.519-10.113,10.193-10.058
		c5.384,0.054,9.921,4.678,9.88,10.071c-0.042,5.517-4.5,9.961-9.97,9.959H45.898 M30.978,15.734
		c-0.028,8.222,6.667,14.782,14.993,14.938c7.583,0.141,15.203-6.783,14.906-14.89c0.027-8.146-6.586-14.882-14.704-14.98
		c-0.064,0-0.127,0-0.189,0C37.664,0.803,31.006,7.405,30.978,15.734"/>
	<polygon fill="#C0007E" points="0,31.511 4.669,27.387 4.669,4.125 0,0 	"/>
	<path fill="#C0007E" d="M27.634,24.328c-1.49,0.891-3.228,1.401-5.081,1.401h-0.084c-5.646-0.045-10.055-4.436-10.019-9.972
		c0.039-5.694,4.519-10.113,10.193-10.058c1.755,0.018,3.418,0.522,4.864,1.381l3.817-3.385c-2.417-1.781-5.381-2.854-8.581-2.892
		c-0.064,0-0.126,0-0.189,0c-8.32,0-14.977,6.603-15.005,14.932c-0.029,8.222,6.667,14.782,14.991,14.938
		c3.133,0.059,6.271-1.09,8.855-3.027L27.634,24.328z"/>
	<polygon fill="#C0007E" points="62.355,27.095 62.639,27.095 62.639,28.435 64.341,28.435 64.341,27.095 64.625,27.095 
		64.625,30.137 64.341,30.137 64.341,28.693 62.639,28.693 62.639,30.137 62.355,30.137 	"/>
	<path fill="#C0007E" d="M66.033,28.616c0-0.232,0.039-0.445,0.116-0.641s0.185-0.363,0.321-0.504
		c0.138-0.143,0.305-0.254,0.496-0.334c0.193-0.08,0.406-0.121,0.639-0.121s0.443,0.041,0.639,0.121
		c0.193,0.08,0.357,0.191,0.496,0.334c0.138,0.141,0.244,0.309,0.322,0.504c0.077,0.195,0.115,0.408,0.115,0.641
		s-0.038,0.445-0.115,0.643c-0.078,0.195-0.185,0.365-0.322,0.506c-0.139,0.143-0.303,0.253-0.496,0.331
		c-0.195,0.079-0.406,0.119-0.639,0.119s-0.445-0.04-0.639-0.119c-0.191-0.078-0.358-0.188-0.496-0.331
		c-0.137-0.141-0.244-0.311-0.321-0.506C66.072,29.062,66.033,28.849,66.033,28.616 M66.316,28.616c0,0.189,0.031,0.365,0.09,0.527
		c0.061,0.164,0.147,0.306,0.259,0.426c0.112,0.121,0.247,0.215,0.406,0.283s0.337,0.104,0.534,0.104
		c0.198,0,0.377-0.035,0.535-0.104c0.16-0.068,0.295-0.162,0.406-0.283c0.111-0.12,0.197-0.262,0.258-0.426
		c0.061-0.162,0.09-0.338,0.09-0.527s-0.029-0.365-0.09-0.528s-0.146-0.306-0.258-0.425c-0.111-0.121-0.246-0.216-0.406-0.285
		c-0.158-0.068-0.337-0.103-0.535-0.103c-0.197,0-0.375,0.034-0.534,0.103c-0.159,0.069-0.294,0.164-0.406,0.285
		c-0.111,0.119-0.198,0.262-0.259,0.425C66.348,28.251,66.316,28.427,66.316,28.616"/>
	<polygon fill="#C0007E" points="71.091,27.353 70.051,27.353 70.051,27.095 72.414,27.095 72.414,27.353 71.375,27.353 
		71.375,30.137 71.091,30.137 	"/>
	<polygon fill="#C0007E" points="73.654,27.095 75.516,27.095 75.516,27.353 73.939,27.353 73.939,28.435 75.418,28.435 
		75.418,28.693 73.939,28.693 73.939,29.88 75.585,29.88 75.585,30.137 73.654,30.137 	"/>
	<polygon fill="#C0007E" points="77.063,27.095 77.346,27.095 77.346,29.88 78.764,29.88 78.764,30.137 77.063,30.137 	"/>
</g>
</svg>
