<?xml version="1.0" encoding="utf-8"?>
<!-- Generator: Adobe Illustrator 16.0.0, SVG Export Plug-In . SVG Version: 6.00 Build 0)  -->
<!DOCTYPE svg PUBLIC "-//W3C//DTD SVG 1.1//EN" "http://www.w3.org/Graphics/SVG/1.1/DTD/svg11.dtd">
<svg version="1.1" id="Capa_1" xmlns="http://www.w3.org/2000/svg" xmlns:xlink="http://www.w3.org/1999/xlink" x="0px" y="0px"
	 width="73.559px" height="71.311px" viewBox="0 0 73.559 71.311" enable-background="new 0 0 73.559 71.311" xml:space="preserve">
<g>
	<g>
		<g>
			<path fill="#FFFFFF" d="M200.164,4581.432c0.076,0,0.229-0.078,0.305-0.078c0-0.152,0.076-0.382,0.076-0.535
				c0.078-3.901,0.078-7.727,0.154-11.628c0-1.606-1.76-4.132-3.443-4.132c-2.141,0-3.289,1.607-2.83,3.062
				c0.459,1.3,0.918,2.524,1.453,3.748c1.072,2.371,2.143,4.743,3.137,7.114C199.475,4579.747,199.781,4580.589,200.164,4581.432z"
				/>
			<path fill="#FFFFFF" d="M145.004,4581.279c0.154,0,0.307,0.074,0.459,0.074c0.307-0.611,0.689-1.224,0.996-1.836
				c0.842-1.912,1.684-3.9,2.447-5.813c0.766-1.683,1.531-3.442,2.295-5.126c0.459-1.146-0.076-2.678-1.07-3.289
				c-0.766-0.459-2.908-0.306-3.443,0.305c-0.994,1.148-1.684,2.373-1.684,4.056c0.076,2.983,0,5.968,0,8.95
				C145.004,4579.518,145.004,4580.359,145.004,4581.279z"/>
			<path fill="#FFFFFF" d="M184.25,4615.628c0,0.075,0.076,0.229,0.076,0.306c0.613,0.077,1.301,0.153,1.914,0.153
				c3.441,0,6.961-0.076,10.404,0.076c1.76,0.078,2.83-0.688,3.596-2.142c0.383-0.689,0.764-1.606,0.229-2.373
				c-0.611-0.84-1.377-1.528-2.523-1.453c-0.994,0.078-1.912,0.23-2.83,0.766c-1.225,0.688-2.602,1.148-3.902,1.684
				c-1.225,0.535-2.449,0.994-3.596,1.53C186.393,4614.633,185.322,4615.093,184.25,4615.628z"/>
			<path fill="#FFFFFF" d="M161.377,4616.087c0-0.076,0.076-0.229,0.076-0.306c-0.154-0.078-0.307-0.23-0.459-0.307
				c-1.148-0.459-2.219-0.994-3.367-1.453c-2.754-1.224-5.43-2.525-8.186-3.596c-0.842-0.306-1.988-0.23-2.906,0.076
				c-1.301,0.383-1.76,1.913-1.225,3.29c0.459,1.224,1.225,2.371,2.602,2.371C152.426,4616.163,156.863,4616.087,161.377,4616.087z"
				/>
			<path fill="#FFFFFF" d="M143.551,4591.759c0.076,0,0.23-0.076,0.307-0.076c0.076-0.919,0.152-1.912,0.152-2.831
				c0-3.826,0-7.65-0.076-11.475c0-0.613-0.383-1.378-0.766-1.76c-1.07-0.919-3.135-0.383-3.9,0.841
				c-0.842,1.377-1.072,2.908-0.459,4.514c1.146,2.831,2.447,5.585,3.672,8.339C142.863,4590.152,143.168,4590.994,143.551,4591.759
				z"/>
			<path fill="#FFFFFF" d="M201.77,4591.683c0.076,0,0.23,0.076,0.307,0.076c0.383-0.843,0.764-1.606,1.146-2.448
				c1.225-2.831,2.525-5.584,3.672-8.414c0.689-1.685,0.23-4.744-1.912-5.433c-1.225-0.383-2.602-0.153-2.982,0.765
				c-0.23,0.459-0.23,1.071-0.23,1.606c0,3.825,0,7.651,0,11.476C201.77,4590.076,201.77,4590.916,201.77,4591.683z"/>
			<path fill="#FFFFFF" d="M146.076,4601.781c0.076-0.077,0.154-0.152,0.154-0.152c-0.154-0.461-0.23-0.92-0.383-1.379
				c-1.303-3.365-2.68-6.655-3.98-10.021c-0.229-0.611-0.535-1.224-0.994-1.683c-0.84-0.841-1.605-1.685-3.061-1.224
				c-1.988,0.611-2.295,3.901-1.146,5.201c0.918,1.071,1.912,2.066,2.83,3.061c1.836,1.836,3.596,3.596,5.432,5.354
				C145.311,4601.245,145.693,4601.475,146.076,4601.781z"/>
			<path fill="#FFFFFF" d="M152.197,4610.426c0.076-0.076,0.076-0.152,0.152-0.229c-0.689-0.765-1.453-1.53-2.219-2.22
				c-2.602-2.676-5.203-5.276-7.803-7.955c-1.072-1.148-3.291-0.766-3.826,0.688c-0.611,1.607,0.842,4.896,2.447,5.586
				c1.531,0.611,3.061,1.071,4.592,1.682c1.299,0.537,2.523,1.148,3.824,1.607C150.359,4609.891,151.277,4610.12,152.197,4610.426z"
				/>
			<path fill="#FFFFFF" d="M199.322,4601.857c0.535-0.229,0.918-0.229,1.07-0.383c0.611-0.536,1.07-1.225,1.607-1.836
				c1.912-1.989,3.824-3.979,5.891-5.813c1.529-1.378,1.988-2.984,1.453-4.974c-0.23-0.918-1.605-1.836-2.449-1.605
				c-1.377,0.305-2.295,1.223-2.83,2.447c-1.146,2.678-2.143,5.355-3.213,8.033C200.316,4598.95,199.857,4600.327,199.322,4601.857z
				"/>
			<path fill="#FFFFFF" d="M193.355,4610.12c0.076,0.076,0.152,0.229,0.152,0.306c1.07-0.383,2.066-0.688,3.137-1.148
				c2.447-0.994,4.973-1.988,7.42-2.982c1.76-0.689,3.213-2.755,3.137-4.591c-0.076-1.377-0.307-1.76-1.529-2.295
				c-1.072-0.459-1.836-0.077-2.602,0.688c-1.988,2.066-4.131,4.055-6.119,6.121C195.727,4607.594,194.502,4608.896,193.355,4610.12
				z"/>
			<path fill="#FFFFFF" d="M150.666,4572.098c0.076,0.076,0.154,0.153,0.307,0.153c1.07-0.995,2.143-2.065,3.213-3.061
				s2.143-1.989,3.061-3.136c1.223-1.454,0.764-3.291,0.611-4.973c0-0.382-0.611-0.843-1.07-0.996c-0.613-0.229-1.225,0-1.531,0.689
				c-0.459,1.225-1.07,2.448-1.529,3.673c-0.611,1.377-1.148,2.753-1.76,4.13C151.508,4569.727,151.049,4570.874,150.666,4572.098z"
				/>
			<path fill="#FFFFFF" d="M194.885,4572.327c0.076-0.076,0.152-0.153,0.307-0.229c-1.607-3.748-3.139-7.497-4.744-11.246
				c-0.154-0.383-0.766-0.766-1.07-0.766c-0.537,0.078-1.301,0.461-1.455,0.918c-0.459,1.838-0.611,3.674,0.766,5.28
				c1.225,1.376,2.525,2.601,3.826,3.901C193.279,4570.874,194.043,4571.563,194.885,4572.327z"/>
			<path fill="#FFFFFF" d="M200.164,4581.432c-0.383-0.843-0.689-1.685-1.072-2.525c-1.07-2.372-2.141-4.743-3.137-7.114
				c-0.535-1.225-1.07-2.524-1.453-3.749c-0.459-1.453,0.613-3.06,2.832-3.06c1.605,0,3.441,2.448,3.441,4.131
				c-0.152,3.825-0.152,7.728-0.23,11.628c0,0.154,0,0.383-0.076,0.537C200.393,4581.354,200.24,4581.354,200.164,4581.432z"/>
			<path fill="#FFFFFF" d="M145.004,4581.279c0-0.92,0-1.762,0-2.68c0-2.982,0.076-5.967,0-8.95
				c-0.076-1.606,0.689-2.907,1.684-4.056c0.535-0.688,2.678-0.764,3.443-0.305c0.994,0.611,1.529,2.143,1.07,3.289
				c-0.688,1.76-1.529,3.443-2.295,5.126c-0.842,1.913-1.605,3.901-2.447,5.813c-0.307,0.612-0.611,1.225-0.996,1.836
				C145.311,4581.354,145.158,4581.279,145.004,4581.279z"/>
			<path fill="#FFFFFF" d="M184.25,4615.628c1.072-0.46,2.143-0.995,3.213-1.453c1.225-0.536,2.449-1.071,3.598-1.53
				c1.299-0.535,2.678-0.996,3.9-1.684c0.918-0.535,1.836-0.688,2.832-0.765c1.223-0.076,1.988,0.612,2.523,1.452
				c0.535,0.843,0.152,1.684-0.23,2.373c-0.688,1.377-1.834,2.22-3.596,2.142c-3.441-0.152-6.885,0-10.404-0.076
				c-0.611,0-1.301-0.076-1.912-0.153C184.326,4615.857,184.326,4615.703,184.25,4615.628z"/>
			<path fill="#FFFFFF" d="M161.377,4616.087c-4.438,0-8.951,0.076-13.389,0c-1.453,0-2.141-1.147-2.602-2.372
				c-0.535-1.377-0.076-2.83,1.225-3.289c0.918-0.306,2.066-0.383,2.906-0.076c2.756,1.07,5.434,2.371,8.188,3.596
				c1.146,0.535,2.217,0.994,3.365,1.453c0.152,0.076,0.307,0.229,0.459,0.305C161.377,4615.857,161.377,4616.011,161.377,4616.087z
				"/>
			<path fill="#FFFFFF" d="M143.551,4591.759c-0.383-0.765-0.688-1.606-1.07-2.371c-1.225-2.755-2.525-5.585-3.672-8.339
				c-0.613-1.531-0.383-3.061,0.459-4.515c0.766-1.224,2.83-1.759,3.9-0.841c0.459,0.382,0.766,1.148,0.766,1.759
				c0.076,3.827,0.076,7.651,0.076,11.476c0,0.918-0.076,1.913-0.152,2.831C143.781,4591.683,143.705,4591.759,143.551,4591.759z"/>
			<path fill="#FFFFFF" d="M201.77,4591.683c0-0.767,0-1.606,0-2.372c0-3.824,0-7.65,0-11.476c0-0.535,0-1.147,0.23-1.606
				c0.459-0.994,1.758-1.224,2.982-0.765c2.143,0.688,2.602,3.748,1.912,5.433c-1.146,2.83-2.447,5.66-3.672,8.414
				c-0.383,0.842-0.764,1.605-1.146,2.448C202,4591.759,201.846,4591.683,201.77,4591.683z"/>
			<path fill="#FFFFFF" d="M146.076,4601.781c-0.383-0.23-0.766-0.536-1.072-0.843c-1.836-1.759-3.672-3.595-5.432-5.354
				c-0.994-0.994-1.912-1.989-2.83-3.061c-1.225-1.377-0.842-4.59,1.148-5.201c1.377-0.461,2.217,0.383,3.059,1.224
				c0.459,0.459,0.766,1.071,0.996,1.683c1.377,3.29,2.678,6.656,3.979,10.021c0.152,0.459,0.229,0.918,0.381,1.379
				C146.152,4601.629,146.152,4601.704,146.076,4601.781z"/>
			<path fill="#FFFFFF" d="M152.197,4610.426c-0.92-0.306-1.838-0.535-2.68-0.918c-1.299-0.537-2.523-1.147-3.824-1.607
				c-1.529-0.611-3.061-1.07-4.59-1.682c-1.607-0.613-3.061-3.979-2.449-5.586c0.535-1.453,2.678-1.836,3.826-0.688
				c2.6,2.678,5.203,5.278,7.803,7.956c0.766,0.766,1.455,1.531,2.219,2.22C152.35,4610.273,152.273,4610.35,152.197,4610.426z"/>
			<path fill="#FFFFFF" d="M199.322,4601.857c0.535-1.53,1.07-2.831,1.529-4.131c1.07-2.678,2.066-5.355,3.213-8.033
				c0.535-1.225,1.453-2.143,2.83-2.447c0.918-0.23,2.219,0.688,2.449,1.605c0.535,1.989,0.076,3.52-1.453,4.974
				c-2.066,1.835-3.902,3.901-5.891,5.813c-0.537,0.611-1.072,1.224-1.607,1.836C200.24,4601.629,199.857,4601.629,199.322,4601.857
				z"/>
			<path fill="#FFFFFF" d="M193.355,4610.12c1.223-1.302,2.371-2.526,3.596-3.825c2.064-2.066,4.131-4.056,6.119-6.121
				c0.766-0.765,1.529-1.147,2.602-0.688c1.223,0.536,1.529,0.842,1.529,2.296c0.076,1.836-1.453,3.902-3.137,4.59
				c-2.447,0.918-4.973,1.989-7.42,2.984c-0.994,0.382-2.066,0.765-3.137,1.146C193.432,4610.35,193.355,4610.273,193.355,4610.12z"
				/>
			<path fill="#FFFFFF" d="M150.666,4572.098c0.459-1.147,0.842-2.371,1.301-3.52c0.535-1.377,1.148-2.753,1.76-4.13
				c0.535-1.225,1.07-2.448,1.529-3.673c0.307-0.689,0.918-0.918,1.531-0.689c0.459,0.153,1.07,0.614,1.07,0.996
				c0.152,1.682,0.611,3.519-0.611,4.973c-0.918,1.146-2.066,2.065-3.061,3.136c-1.07,1.071-2.143,2.065-3.213,3.061
				C150.82,4572.174,150.742,4572.174,150.666,4572.098z"/>
			<path fill="#FFFFFF" d="M194.885,4572.327c-0.766-0.688-1.605-1.453-2.371-2.142c-1.301-1.301-2.602-2.525-3.826-3.901
				c-1.377-1.53-1.225-3.442-0.766-5.28c0.076-0.381,0.918-0.765,1.455-0.918c0.305-0.076,0.916,0.383,1.07,0.766
				c1.605,3.749,3.213,7.498,4.744,11.246C195.037,4572.174,194.961,4572.251,194.885,4572.327z"/>
		</g>
		<g>
			<circle fill="#FFFFFF" cx="163.059" cy="4603.311" r="1.606"/>
			<circle fill="#FFFFFF" cx="182.568" cy="4603.311" r="1.606"/>
			<g>
				<path fill="#FFFFFF" d="M159.693,4599.944c-0.918,0.918-1.377,2.065-1.377,3.366s0.459,2.447,1.377,3.365
					s2.064,1.379,3.365,1.379c2.602,0,4.744-2.143,4.744-4.744s-2.143-4.743-4.744-4.743
					C161.758,4598.491,160.611,4599.026,159.693,4599.944z M160.688,4605.605c-0.611-0.611-0.994-1.453-0.994-2.371
					s0.383-1.684,0.994-2.372c0.611-0.612,1.453-0.994,2.371-0.994c1.838,0,3.291,1.453,3.291,3.289c0,1.837-1.453,3.29-3.291,3.29
					C162.141,4606.602,161.377,4606.295,160.688,4605.605z"/>
			</g>
			<g>
				<path fill="#FFFFFF" d="M179.201,4599.944c-0.918,0.918-1.377,2.065-1.377,3.366s0.535,2.447,1.377,3.365
					c0.918,0.918,2.066,1.379,3.367,1.379c2.6,0,4.742-2.143,4.742-4.744s-2.143-4.743-4.742-4.743
					C181.268,4598.491,180.043,4599.026,179.201,4599.944z M180.195,4605.605c-0.611-0.611-0.994-1.453-0.994-2.371
					s0.383-1.684,0.994-2.372c0.613-0.612,1.455-0.994,2.373-0.994c1.836,0,3.289,1.453,3.289,3.289c0,1.837-1.453,3.29-3.289,3.29
					C181.65,4606.602,180.809,4606.295,180.195,4605.605z"/>
			</g>
			<path fill="#FFFFFF" d="M190.217,4597.037c0.383-1.147,0.92-2.447,1.762-3.212h-6.504c-0.076,0-0.229-0.077-0.307-0.077
				c-0.383-0.535-2.754-3.672-12.469-3.672c-10.711-0.076-12.623,3.672-12.623,3.672h-6.809c0.842,0.842,1.453,2.371,1.836,3.519
				c-1.225,1.684-1.988,3.749-1.988,5.968c0,5.508,4.436,9.945,9.943,9.945c3.061,0,5.738-1.377,7.574-3.52l2.297,3.138l1.912-3.29
				c1.836,2.219,4.59,3.672,7.727,3.672c5.508,0,9.945-4.438,9.945-9.945C192.514,4600.938,191.672,4598.721,190.217,4597.037z
				 M163.059,4611.266c-4.436,0-7.955-3.594-7.955-7.955c0-4.438,3.596-7.956,7.955-7.956c4.438,0,7.957,3.596,7.957,7.956
				C171.016,4607.672,167.496,4611.266,163.059,4611.266z M182.568,4611.266c-4.438,0-7.957-3.594-7.957-7.955
				c0-4.438,3.596-7.956,7.957-7.956c4.436,0,7.955,3.596,7.955,7.956C190.523,4607.672,186.928,4611.266,182.568,4611.266z"/>
			<path fill="#FFFFFF" d="M173.234,4591.146c6.809,0,9.41,2.831,9.41,2.831s-7.268-1.224-9.715,7.727
				c-2.449-8.95-9.717-7.727-9.717-7.727s2.523-2.831,9.41-2.831H173.234L173.234,4591.146z"/>
		</g>
		<g>
			<g>
				<path fill="#FFFFFF" d="M142.633,4619.912v1.683h1.838v0.994h-1.838v3.749c0,0.842,0.23,1.377,0.918,1.377
					c0.383,0,0.537,0,0.766-0.076l0.076,0.994c-0.229,0.076-0.611,0.152-1.148,0.152c-0.611,0-1.07-0.229-1.377-0.535
					c-0.381-0.383-0.459-0.994-0.459-1.834v-3.75h-1.07v-0.995h1.07v-1.3L142.633,4619.912z"/>
				<path fill="#FFFFFF" d="M145.617,4623.736c0-0.84,0-1.529-0.076-2.142h1.07l0.076,1.377h0.076
					c0.307-0.918,1.072-1.53,1.914-1.53c0.152,0,0.229,0,0.305,0.076v1.148c-0.152,0-0.305,0-0.457,0
					c-0.92,0-1.531,0.688-1.686,1.605c0,0.153-0.076,0.383-0.076,0.612v3.673h-1.223L145.617,4623.736z"/>
				<path fill="#FFFFFF" d="M150.59,4620.294c-0.459,0-0.766-0.382-0.766-0.841s0.307-0.766,0.842-0.766
					c0.459,0,0.842,0.383,0.842,0.766C151.432,4619.912,151.125,4620.294,150.59,4620.294L150.59,4620.294z M150.055,4628.48v-6.963
					h1.223v6.963H150.055z"/>
				<path fill="#FFFFFF" d="M153.037,4623.813c0-0.916,0-1.605-0.076-2.295h1.148l0.076,1.225l0,0
					c0.535-0.842,1.301-1.376,2.447-1.376c1.684,0,2.984,1.452,2.984,3.518c0,2.525-1.531,3.749-3.137,3.749
					c-0.918,0-1.684-0.383-2.143-1.071l0,0v3.749h-1.223v-7.498H153.037z M154.338,4625.726c0,0.153,0,0.382,0.076,0.535
					c0.23,0.843,0.996,1.454,1.914,1.454c1.299,0,2.141-1.07,2.141-2.678c0-1.377-0.688-2.602-2.064-2.602
					c-0.842,0-1.684,0.613-1.912,1.531c0,0.152-0.078,0.383-0.078,0.535v1.224H154.338z"/>
				<path fill="#FFFFFF" d="M165.813,4626.873c0,0.613,0,1.224,0.076,1.684h-1.146l-0.076-0.918l0,0
					c-0.383,0.535-1.148,1.07-2.143,1.07c-1.377,0-2.141-0.994-2.141-1.988c0-1.684,1.453-2.602,4.207-2.602v-0.152
					c0-0.536-0.152-1.607-1.607-1.607c-0.688,0-1.301,0.154-1.836,0.537l-0.307-0.843c0.537-0.383,1.455-0.612,2.295-0.612
					c2.143,0,2.678,1.455,2.678,2.83V4626.873z M164.59,4624.961c-1.377,0-2.908,0.229-2.908,1.53c0,0.841,0.535,1.224,1.148,1.224
					c0.918,0,1.529-0.535,1.684-1.146c0.076-0.152,0.076-0.308,0.076-0.383V4624.961z"/>
				<path fill="#FFFFFF" d="M173.541,4618.306v8.415c0,0.611,0,1.301,0.076,1.76h-1.148l-0.076-1.225l0,0
					c-0.383,0.766-1.223,1.377-2.371,1.377c-1.684,0-2.984-1.453-2.984-3.52c0-2.295,1.455-3.747,3.137-3.747
					c1.072,0,1.76,0.534,2.066,1.069l0,0v-4.13H173.541L173.541,4618.306z M172.24,4624.425c0-0.153,0-0.382-0.076-0.535
					c-0.154-0.765-0.842-1.454-1.836-1.454c-1.301,0-2.066,1.148-2.066,2.678c0,1.455,0.689,2.602,2.066,2.602
					c0.842,0,1.605-0.535,1.836-1.529c0.076-0.154,0.076-0.307,0.076-0.537V4624.425z"/>
				<path fill="#FFFFFF" d="M175.836,4621.595l1.377,3.901c0.229,0.611,0.383,1.225,0.535,1.76h0.076
					c0.154-0.535,0.383-1.148,0.613-1.76l1.377-3.901h1.299l-2.754,6.962h-1.223l-2.602-6.962H175.836z"/>
				<path fill="#FFFFFF" d="M182.49,4620.294c-0.459,0-0.764-0.382-0.764-0.841s0.305-0.766,0.842-0.766
					c0.459,0,0.764,0.383,0.764,0.766C183.332,4619.912,183.027,4620.294,182.49,4620.294L182.49,4620.294z M181.879,4628.48v-6.963
					h1.225v6.963H181.879z"/>
				<path fill="#FFFFFF" d="M184.785,4627.256c0.383,0.23,1.072,0.459,1.684,0.459c0.918,0,1.301-0.459,1.301-0.994
					c0-0.613-0.383-0.918-1.301-1.301c-1.223-0.459-1.836-1.148-1.836-1.989c0-1.147,0.918-2.064,2.371-2.064
					c0.689,0,1.301,0.151,1.684,0.459l-0.307,0.917c-0.305-0.153-0.764-0.383-1.453-0.383c-0.766,0-1.146,0.459-1.146,0.918
					c0,0.612,0.381,0.842,1.301,1.225c1.223,0.459,1.836,1.07,1.836,2.066c0,1.223-0.996,2.064-2.602,2.064
					c-0.766,0-1.453-0.229-1.912-0.459L184.785,4627.256z"/>
				<path fill="#FFFFFF" d="M193.201,4628.709c-1.836,0-3.365-1.377-3.365-3.596c0-2.295,1.529-3.672,3.443-3.672
					c1.988,0,3.365,1.455,3.365,3.52C196.645,4627.562,194.809,4628.709,193.201,4628.709L193.201,4628.709z M193.201,4627.715
					c1.225,0,2.143-1.146,2.143-2.678c0-1.147-0.611-2.678-2.064-2.678c-1.455,0-2.143,1.377-2.143,2.678
					C191.137,4626.568,191.979,4627.715,193.201,4627.715L193.201,4627.715z"/>
				<path fill="#FFFFFF" d="M197.945,4623.736c0-0.84,0-1.529-0.076-2.142h1.07l0.076,1.377h0.076
					c0.307-0.918,1.072-1.53,1.912-1.53c0.154,0,0.23,0,0.383,0.076v1.148c-0.152,0-0.305,0-0.459,0
					c-0.918,0-1.529,0.688-1.682,1.605c0,0.153-0.078,0.383-0.078,0.612v3.673h-1.223V4623.736z"/>
			</g>
			<g>
				<g>
					<path fill="#FFFFFF" d="M203.299,4621.518c0.078,0,0.23,0,0.459,0c0.23,0,0.383,0,0.459,0.153
						c0.078,0.077,0.154,0.154,0.154,0.306c0,0.154-0.154,0.307-0.23,0.383l0,0c0.076,0.076,0.154,0.154,0.23,0.307
						s0.076,0.383,0.152,0.459h-0.307c0-0.076-0.076-0.153-0.076-0.383c-0.076-0.153-0.076-0.229-0.229-0.229h-0.076v0.611h-0.307
						v-1.607H203.299z M203.605,4622.131h0.076c0.154,0,0.23-0.077,0.23-0.23c0-0.152-0.076-0.229-0.23-0.229
						c-0.076,0-0.152,0-0.152,0v0.46H203.605z"/>
				</g>
				<g>
					<path fill="#FFFFFF" d="M202.305,4622.283c0,0.842,0.689,1.453,1.453,1.453c0.842,0,1.455-0.688,1.455-1.453
						c0-0.842-0.689-1.453-1.455-1.453C202.994,4620.754,202.305,4621.441,202.305,4622.283z M202.611,4622.283
						c0-0.612,0.535-1.147,1.146-1.147c0.613,0,1.148,0.535,1.148,1.147c0,0.613-0.535,1.147-1.148,1.147
						C203.146,4623.431,202.611,4622.896,202.611,4622.283z"/>
				</g>
			</g>
		</g>
		<g>
			<path fill="#FFFFFF" d="M154.033,4574.775h-1.301v-0.766h3.596v0.766h-1.301v3.901h-0.918v-3.901H154.033z"/>
			<path fill="#FFFFFF" d="M156.787,4574.086h0.994c0.994,0,2.219,0,2.219,1.225c0,0.535-0.383,0.994-0.996,1.071l0,0
				c0.23,0,0.383,0.306,0.459,0.46l0.766,1.835h-1.07l-0.535-1.454c-0.154-0.381-0.23-0.459-0.613-0.459h-0.229v1.913h-0.918v-4.591
				H156.787z M157.781,4576.075h0.305c0.459,0,0.996-0.076,0.996-0.611c0-0.536-0.537-0.612-0.996-0.612h-0.305V4576.075z"/>
			<path fill="#FFFFFF" d="M162.295,4574.086h1.07l1.836,4.667h-1.07l-0.383-1.071h-1.912l-0.383,1.071h-0.994L162.295,4574.086z
				 M162.83,4575.005L162.83,4575.005l-0.689,1.912h1.377L162.83,4575.005z"/>
			<path fill="#FFFFFF" d="M164.971,4574.086h0.996l1.223,3.673l0,0l1.148-3.673h0.918l-1.531,4.667h-1.146L164.971,4574.086z"/>
			<path fill="#FFFFFF" d="M169.945,4574.086h2.754v0.766h-1.836v1.147h1.684v0.765h-1.684v1.301h1.836v0.766h-2.754V4574.086z"/>
			<path fill="#FFFFFF" d="M173.617,4574.086h0.918v3.902h1.836v0.765h-2.754V4574.086L173.617,4574.086z"/>
			<path fill="#FFFFFF" d="M176.982,4574.086h0.918v3.902h1.836v0.765h-2.754V4574.086z"/>
			<path fill="#FFFFFF" d="M180.35,4574.086h2.754v0.766h-1.836v1.147h1.682v0.765h-1.682v1.301h1.836v0.766h-2.754V4574.086z"/>
			<path fill="#FFFFFF" d="M183.945,4574.086h0.994c0.994,0,2.219,0,2.219,1.225c0,0.535-0.383,0.994-0.996,1.071l0,0
				c0.23,0,0.383,0.306,0.459,0.46l0.766,1.835h-1.07l-0.535-1.454c-0.154-0.381-0.23-0.459-0.613-0.459h-0.305v1.913h-0.918
				V4574.086z M184.863,4576.075h0.305c0.459,0,0.994-0.076,0.994-0.611c0-0.536-0.535-0.612-0.994-0.612h-0.305V4576.075z"/>
			<path fill="#FFFFFF" d="M190.6,4574.928c-0.307-0.152-0.611-0.229-0.918-0.229c-0.305,0-0.764,0.153-0.764,0.612
				c0,0.842,2.064,0.459,2.064,2.066c0,0.993-0.842,1.376-1.758,1.376c-0.537,0-0.768-0.076-1.227-0.153l0.078-0.841
				c0.305,0.153,0.688,0.306,1.07,0.306s0.842-0.152,0.842-0.612c0-0.918-2.066-0.535-2.066-2.065c0-1.07,0.842-1.453,1.607-1.453
				c0.383,0,0.764,0.076,1.146,0.152L190.6,4574.928z"/>
			<path fill="#FFFFFF" d="M191.9,4574.086h0.996l-0.613,1.684h-0.764L191.9,4574.086z"/>
		</g>
		<g>
			<path fill="#FFFFFF" d="M159.311,4587.628c-0.611,0.153-1.225,0.229-1.836,0.229c-2.602,0-4.359-1.301-4.359-3.979
				c0-2.754,1.682-4.284,4.359-4.284c0.535,0,1.225,0.077,1.836,0.306l-0.152,1.379c-0.613-0.308-1.148-0.461-1.76-0.461
				c-1.684,0-2.678,1.224-2.678,2.908c0,1.606,0.994,2.83,2.678,2.83c0.611,0,1.377-0.152,1.76-0.307L159.311,4587.628z"/>
			<path fill="#FFFFFF" d="M160.459,4579.825h1.605v3.212h3.213v-3.212h1.607v7.956h-1.607v-3.52h-3.213v3.52h-1.605V4579.825z"/>
			<path fill="#FFFFFF" d="M172.24,4579.672c2.525,0,3.9,1.682,3.9,4.131c0,2.447-1.375,4.131-3.9,4.131s-3.902-1.684-3.902-4.131
				C168.338,4581.279,169.715,4579.672,172.24,4579.672z M172.24,4586.633c1.605,0,2.219-1.453,2.219-2.906
				c0-1.377-0.689-2.83-2.219-2.83c-1.607,0-2.219,1.453-2.219,2.83C170.021,4585.18,170.633,4586.633,172.24,4586.633z"/>
			<path fill="#FFFFFF" d="M177.441,4579.825h1.607v7.956h-1.607V4579.825z"/>
			<path fill="#FFFFFF" d="M186.621,4587.628c-0.611,0.153-1.223,0.229-1.836,0.229c-2.6,0-4.359-1.301-4.359-3.979
				c0-2.754,1.684-4.284,4.359-4.284c0.537,0,1.225,0.077,1.836,0.306l-0.076,1.379c-0.611-0.308-1.146-0.461-1.76-0.461
				c-1.682,0-2.676,1.224-2.676,2.908c0,1.606,0.994,2.83,2.676,2.83c0.613,0,1.377-0.152,1.76-0.307L186.621,4587.628z"/>
			<path fill="#FFFFFF" d="M187.77,4579.825h4.744v1.224h-3.137v1.988h2.83v1.225h-2.83v2.218h3.137v1.226h-4.744V4579.825
				L187.77,4579.825z"/>
		</g>
	</g>
</g>
<g>
	<g>
		<g>
			<path fill="#FFFFFF" d="M64.164,21.432c0.076,0,0.229-0.078,0.305-0.078c0-0.152,0.076-0.382,0.076-0.535
				c0.078-3.901,0.078-7.727,0.154-11.628c0-1.606-1.76-4.132-3.443-4.132c-2.141,0-3.289,1.607-2.83,3.062
				c0.459,1.3,0.918,2.524,1.453,3.748c1.072,2.371,2.143,4.743,3.137,7.114C63.475,19.747,63.781,20.589,64.164,21.432z"/>
			<path fill="#FFFFFF" d="M9.004,21.279c0.153,0,0.307,0.074,0.459,0.074c0.307-0.611,0.688-1.224,0.995-1.836
				c0.842-1.912,1.684-3.9,2.447-5.813c0.766-1.683,1.531-3.442,2.295-5.126c0.46-1.146-0.076-2.678-1.07-3.289
				c-0.766-0.459-2.907-0.306-3.442,0.305C9.693,6.742,9.004,7.967,9.004,9.649c0.076,2.983,0,5.968,0,8.95
				C9.004,19.518,9.004,20.359,9.004,21.279z"/>
			<path fill="#FFFFFF" d="M48.25,55.628c0,0.075,0.076,0.229,0.076,0.306c0.613,0.077,1.301,0.153,1.914,0.153
				c3.441,0,6.961-0.076,10.404,0.076c1.76,0.078,2.83-0.688,3.596-2.142c0.383-0.689,0.764-1.606,0.229-2.373
				c-0.611-0.84-1.377-1.528-2.523-1.453c-0.994,0.078-1.912,0.23-2.83,0.766c-1.225,0.688-2.602,1.148-3.902,1.684
				c-1.225,0.535-2.449,0.994-3.596,1.53C50.393,54.633,49.322,55.093,48.25,55.628z"/>
			<path fill="#FFFFFF" d="M25.376,56.087c0-0.076,0.077-0.229,0.077-0.306c-0.154-0.078-0.307-0.23-0.46-0.307
				c-1.147-0.459-2.218-0.994-3.366-1.453c-2.754-1.224-5.431-2.525-8.186-3.596c-0.842-0.306-1.989-0.23-2.907,0.076
				c-1.301,0.383-1.76,1.913-1.224,3.29c0.459,1.224,1.224,2.371,2.601,2.371C16.426,56.163,20.863,56.087,25.376,56.087z"/>
			<path fill="#FFFFFF" d="M7.551,31.759c0.076,0,0.229-0.076,0.306-0.076c0.077-0.919,0.153-1.912,0.153-2.831
				c0-3.826,0-7.65-0.076-11.475c0-0.613-0.383-1.378-0.766-1.76c-1.07-0.919-3.136-0.383-3.901,0.841
				c-0.841,1.377-1.071,2.908-0.459,4.514c1.147,2.831,2.448,5.585,3.672,8.339C6.863,30.152,7.168,30.994,7.551,31.759z"/>
			<path fill="#FFFFFF" d="M65.77,31.683c0.076,0,0.23,0.076,0.307,0.076c0.383-0.843,0.764-1.606,1.146-2.448
				c1.225-2.831,2.525-5.584,3.672-8.414c0.689-1.685,0.23-4.744-1.912-5.433c-1.225-0.383-2.602-0.153-2.982,0.765
				c-0.23,0.459-0.23,1.071-0.23,1.606c0,3.825,0,7.651,0,11.476C65.77,30.076,65.77,30.916,65.77,31.683z"/>
			<path fill="#FFFFFF" d="M10.076,41.781c0.076-0.077,0.154-0.152,0.154-0.152c-0.154-0.461-0.23-0.92-0.383-1.379
				c-1.302-3.365-2.679-6.655-3.979-10.021c-0.229-0.611-0.535-1.224-0.994-1.683c-0.841-0.841-1.606-1.685-3.061-1.224
				c-1.988,0.611-2.295,3.901-1.146,5.201c0.918,1.071,1.912,2.066,2.83,3.061c1.836,1.836,3.596,3.596,5.432,5.354
				C9.311,41.245,9.693,41.475,10.076,41.781z"/>
			<path fill="#FFFFFF" d="M16.197,50.426c0.076-0.076,0.076-0.152,0.152-0.229c-0.688-0.765-1.453-1.53-2.219-2.22
				c-2.602-2.676-5.202-5.276-7.803-7.955c-1.071-1.148-3.29-0.766-3.826,0.688c-0.611,1.607,0.843,4.896,2.448,5.586
				c1.53,0.611,3.061,1.071,4.591,1.682c1.3,0.537,2.524,1.148,3.824,1.607C14.36,49.891,15.278,50.12,16.197,50.426z"/>
			<path fill="#FFFFFF" d="M63.322,41.857c0.535-0.229,0.918-0.229,1.07-0.383c0.611-0.536,1.07-1.225,1.607-1.836
				c1.912-1.989,3.824-3.979,5.891-5.813c1.529-1.378,1.988-2.984,1.453-4.974c-0.23-0.918-1.605-1.836-2.449-1.605
				c-1.377,0.305-2.295,1.223-2.83,2.447c-1.146,2.678-2.143,5.355-3.213,8.033C64.316,38.95,63.857,40.327,63.322,41.857z"/>
			<path fill="#FFFFFF" d="M57.355,50.12c0.076,0.076,0.152,0.229,0.152,0.306c1.07-0.383,2.066-0.688,3.137-1.148
				c2.447-0.994,4.973-1.988,7.42-2.982c1.76-0.689,3.213-2.755,3.137-4.591c-0.076-1.377-0.307-1.76-1.529-2.295
				c-1.072-0.459-1.836-0.077-2.602,0.688c-1.988,2.066-4.131,4.055-6.119,6.121C59.727,47.594,58.502,48.896,57.355,50.12z"/>
			<path fill="#FFFFFF" d="M14.666,12.098c0.076,0.076,0.154,0.153,0.307,0.153c1.071-0.995,2.143-2.065,3.213-3.061
				c1.071-0.995,2.143-1.989,3.061-3.136c1.224-1.454,0.765-3.291,0.611-4.973c0-0.382-0.611-0.843-1.07-0.996
				c-0.612-0.229-1.225,0-1.53,0.689c-0.46,1.225-1.071,2.448-1.53,3.673c-0.611,1.377-1.147,2.753-1.76,4.13
				C15.507,9.727,15.048,10.874,14.666,12.098z"/>
			<path fill="#FFFFFF" d="M58.885,12.327c0.076-0.076,0.152-0.153,0.307-0.229c-1.607-3.748-3.139-7.497-4.744-11.246
				c-0.154-0.383-0.766-0.766-1.07-0.766c-0.537,0.078-1.301,0.461-1.455,0.918c-0.459,1.838-0.611,3.674,0.766,5.28
				c1.225,1.376,2.525,2.601,3.826,3.901C57.279,10.874,58.043,11.563,58.885,12.327z"/>
			<path fill="#FFFFFF" d="M64.164,21.432c-0.383-0.843-0.689-1.685-1.072-2.525c-1.07-2.372-2.141-4.743-3.137-7.114
				c-0.535-1.225-1.07-2.524-1.453-3.749c-0.459-1.453,0.613-3.06,2.832-3.06c1.605,0,3.441,2.448,3.441,4.131
				c-0.152,3.825-0.152,7.728-0.23,11.628c0,0.154,0,0.383-0.076,0.537C64.393,21.354,64.24,21.354,64.164,21.432z"/>
			<path fill="#FFFFFF" d="M9.004,21.279c0-0.92,0-1.762,0-2.68c0-2.982,0.076-5.967,0-8.95c-0.076-1.606,0.688-2.907,1.684-4.056
				c0.535-0.688,2.677-0.764,3.442-0.305c0.994,0.611,1.53,2.143,1.07,3.289c-0.688,1.76-1.529,3.443-2.295,5.126
				c-0.841,1.913-1.605,3.901-2.447,5.813c-0.307,0.612-0.611,1.225-0.995,1.836C9.311,21.354,9.158,21.279,9.004,21.279z"/>
			<path fill="#FFFFFF" d="M48.25,55.628c1.072-0.46,2.143-0.995,3.213-1.453c1.225-0.536,2.449-1.071,3.598-1.53
				c1.299-0.535,2.678-0.996,3.9-1.684c0.918-0.535,1.836-0.688,2.832-0.765c1.223-0.076,1.988,0.612,2.523,1.452
				c0.535,0.843,0.152,1.684-0.23,2.373c-0.688,1.377-1.834,2.22-3.596,2.142c-3.441-0.152-6.885,0-10.404-0.076
				c-0.611,0-1.301-0.076-1.912-0.153C48.326,55.857,48.326,55.703,48.25,55.628z"/>
			<path fill="#FFFFFF" d="M25.376,56.087c-4.438,0-8.95,0.076-13.388,0c-1.454,0-2.142-1.147-2.602-2.372
				c-0.535-1.377-0.076-2.83,1.224-3.289c0.918-0.306,2.066-0.383,2.907-0.076c2.755,1.07,5.433,2.371,8.187,3.596
				c1.146,0.535,2.218,0.994,3.366,1.453c0.152,0.076,0.306,0.229,0.458,0.305C25.376,55.857,25.376,56.011,25.376,56.087z"/>
			<path fill="#FFFFFF" d="M7.551,31.759c-0.383-0.765-0.688-1.606-1.071-2.371c-1.224-2.755-2.524-5.585-3.672-8.339
				c-0.612-1.531-0.382-3.061,0.459-4.515c0.766-1.224,2.831-1.759,3.901-0.841c0.459,0.382,0.766,1.148,0.766,1.759
				C8.01,21.279,8.01,25.104,8.01,28.928c0,0.918-0.076,1.913-0.153,2.831C7.781,31.683,7.705,31.759,7.551,31.759z"/>
			<path fill="#FFFFFF" d="M65.77,31.683c0-0.767,0-1.606,0-2.372c0-3.824,0-7.65,0-11.476c0-0.535,0-1.147,0.23-1.606
				c0.459-0.994,1.758-1.224,2.982-0.765c2.143,0.688,2.602,3.748,1.912,5.433c-1.146,2.83-2.447,5.66-3.672,8.414
				c-0.383,0.842-0.764,1.605-1.146,2.448C66,31.759,65.846,31.683,65.77,31.683z"/>
			<path fill="#FFFFFF" d="M10.076,41.781c-0.383-0.23-0.765-0.536-1.071-0.843c-1.836-1.759-3.672-3.595-5.432-5.354
				c-0.994-0.994-1.912-1.989-2.831-3.061c-1.224-1.377-0.841-4.59,1.148-5.201c1.377-0.461,2.218,0.383,3.06,1.224
				c0.459,0.459,0.766,1.071,0.995,1.683c1.377,3.29,2.678,6.656,3.979,10.021c0.152,0.459,0.229,0.918,0.382,1.379
				C10.152,41.629,10.152,41.704,10.076,41.781z"/>
			<path fill="#FFFFFF" d="M16.197,50.426c-0.919-0.306-1.837-0.535-2.679-0.918c-1.3-0.537-2.524-1.147-3.825-1.607
				c-1.529-0.611-3.06-1.07-4.59-1.682c-1.606-0.613-3.06-3.979-2.448-5.586c0.535-1.453,2.678-1.836,3.825-0.688
				c2.601,2.678,5.203,5.278,7.804,7.956c0.765,0.766,1.454,1.531,2.218,2.22C16.349,50.273,16.273,50.35,16.197,50.426z"/>
			<path fill="#FFFFFF" d="M63.322,41.857c0.535-1.53,1.07-2.831,1.529-4.131c1.07-2.678,2.066-5.355,3.213-8.033
				c0.535-1.225,1.453-2.143,2.83-2.447c0.918-0.23,2.219,0.688,2.449,1.605c0.535,1.989,0.076,3.52-1.453,4.974
				c-2.066,1.835-3.902,3.901-5.891,5.813c-0.537,0.611-1.072,1.224-1.607,1.836C64.24,41.629,63.857,41.629,63.322,41.857z"/>
			<path fill="#FFFFFF" d="M57.355,50.12c1.223-1.302,2.371-2.526,3.596-3.825c2.064-2.066,4.131-4.056,6.119-6.121
				c0.766-0.765,1.529-1.147,2.602-0.688c1.223,0.536,1.529,0.842,1.529,2.296c0.076,1.836-1.453,3.902-3.137,4.59
				c-2.447,0.918-4.973,1.989-7.42,2.984c-0.994,0.382-2.066,0.765-3.137,1.146C57.432,50.35,57.355,50.273,57.355,50.12z"/>
			<path fill="#FFFFFF" d="M14.666,12.098c0.459-1.147,0.842-2.371,1.301-3.52c0.535-1.377,1.148-2.753,1.76-4.13
				c0.535-1.225,1.07-2.448,1.53-3.673c0.306-0.689,0.918-0.918,1.53-0.689c0.459,0.153,1.07,0.614,1.07,0.996
				c0.153,1.682,0.612,3.519-0.611,4.973c-0.918,1.146-2.066,2.065-3.061,3.136c-1.07,1.071-2.142,2.065-3.213,3.061
				C14.82,12.174,14.742,12.174,14.666,12.098z"/>
			<path fill="#FFFFFF" d="M58.885,12.327c-0.766-0.688-1.605-1.453-2.371-2.142c-1.301-1.301-2.602-2.525-3.826-3.901
				c-1.377-1.53-1.225-3.442-0.766-5.28c0.076-0.381,0.918-0.765,1.455-0.918c0.305-0.076,0.916,0.383,1.07,0.766
				c1.605,3.749,3.213,7.498,4.744,11.246C59.037,12.174,58.961,12.251,58.885,12.327z"/>
		</g>
		<g>
			<circle fill="#FFFFFF" cx="27.059" cy="43.311" r="1.606"/>
			<circle fill="#FFFFFF" cx="46.568" cy="43.311" r="1.606"/>
			<g>
				<path fill="#FFFFFF" d="M23.693,39.944c-0.917,0.918-1.377,2.065-1.377,3.366s0.46,2.447,1.377,3.365
					c0.919,0.918,2.065,1.379,3.366,1.379c2.602,0,4.743-2.143,4.743-4.744s-2.142-4.743-4.743-4.743
					C25.758,38.491,24.612,39.026,23.693,39.944z M24.688,45.605c-0.612-0.611-0.995-1.453-0.995-2.371s0.383-1.684,0.995-2.372
					c0.611-0.612,1.453-0.994,2.371-0.994c1.837,0,3.29,1.453,3.29,3.289c0,1.837-1.453,3.29-3.29,3.29
					C26.141,46.602,25.376,46.295,24.688,45.605z"/>
			</g>
			<g>
				<path fill="#FFFFFF" d="M43.201,39.944c-0.918,0.918-1.377,2.065-1.377,3.366s0.535,2.447,1.377,3.365
					c0.918,0.918,2.066,1.379,3.367,1.379c2.6,0,4.742-2.143,4.742-4.744s-2.143-4.743-4.742-4.743
					C45.268,38.491,44.043,39.026,43.201,39.944z M44.195,45.605c-0.611-0.611-0.994-1.453-0.994-2.371s0.383-1.684,0.994-2.372
					c0.613-0.612,1.455-0.994,2.373-0.994c1.836,0,3.289,1.453,3.289,3.289c0,1.837-1.453,3.29-3.289,3.29
					C45.65,46.602,44.809,46.295,44.195,45.605z"/>
			</g>
			<path fill="#FFFFFF" d="M54.217,37.037c0.383-1.147,0.92-2.447,1.762-3.212h-6.504c-0.076,0-0.229-0.077-0.307-0.077
				c-0.383-0.535-2.754-3.672-12.469-3.672C25.989,30,24.076,33.748,24.076,33.748h-6.809c0.842,0.842,1.454,2.371,1.836,3.519
				c-1.224,1.684-1.988,3.749-1.988,5.968c0,5.508,4.437,9.945,9.944,9.945c3.061,0,5.738-1.377,7.574-3.52l2.296,3.138l1.912-3.29
				c1.836,2.219,4.59,3.672,7.727,3.672c5.508,0,9.945-4.438,9.945-9.945C56.514,40.938,55.672,38.721,54.217,37.037z
				 M27.059,51.266c-4.437,0-7.956-3.594-7.956-7.955c0-4.438,3.596-7.956,7.956-7.956c4.438,0,7.956,3.596,7.956,7.956
				C35.015,47.672,31.497,51.266,27.059,51.266z M46.568,51.266c-4.438,0-7.957-3.594-7.957-7.955c0-4.438,3.596-7.956,7.957-7.956
				c4.436,0,7.955,3.596,7.955,7.956C54.523,47.672,50.928,51.266,46.568,51.266z"/>
			<path fill="#FFFFFF" d="M37.234,31.146c6.809,0,9.41,2.831,9.41,2.831s-7.268-1.224-9.715,7.727
				c-2.45-8.95-9.717-7.727-9.717-7.727s2.524-2.831,9.411-2.831H37.234L37.234,31.146z"/>
		</g>
		<g>
			<g>
				<path fill="#FFFFFF" d="M6.633,59.912v1.683H8.47v0.994H6.633v3.749c0,0.842,0.229,1.377,0.918,1.377
					c0.383,0,0.536,0,0.765-0.076l0.077,0.994c-0.229,0.076-0.612,0.152-1.148,0.152c-0.611,0-1.07-0.229-1.377-0.535
					c-0.382-0.383-0.459-0.994-0.459-1.834v-3.75h-1.07v-0.995h1.07v-1.3L6.633,59.912z"/>
				<path fill="#FFFFFF" d="M9.617,63.736c0-0.84,0-1.529-0.076-2.142h1.07l0.077,1.377h0.076c0.306-0.918,1.071-1.53,1.913-1.53
					c0.152,0,0.229,0,0.306,0.076v1.148c-0.153,0-0.306,0-0.458,0c-0.919,0-1.531,0.688-1.685,1.605
					c0,0.153-0.076,0.383-0.076,0.612v3.673H9.541L9.617,63.736z"/>
				<path fill="#FFFFFF" d="M14.589,60.294c-0.459,0-0.766-0.382-0.766-0.841s0.307-0.766,0.842-0.766
					c0.459,0,0.842,0.383,0.842,0.766C15.431,59.912,15.125,60.294,14.589,60.294L14.589,60.294z M14.054,68.48v-6.963h1.224v6.963
					H14.054z"/>
				<path fill="#FFFFFF" d="M17.037,63.813c0-0.916,0-1.605-0.075-2.295h1.147l0.076,1.225l0,0c0.536-0.842,1.301-1.376,2.448-1.376
					c1.683,0,2.983,1.452,2.983,3.518c0,2.525-1.53,3.749-3.136,3.749c-0.919,0-1.685-0.383-2.143-1.071l0,0v3.749h-1.224v-7.498
					H17.037z M18.338,65.726c0,0.153,0,0.382,0.076,0.535c0.229,0.843,0.995,1.454,1.913,1.454c1.3,0,2.142-1.07,2.142-2.678
					c0-1.377-0.688-2.602-2.065-2.602c-0.842,0-1.683,0.613-1.912,1.531c0,0.152-0.077,0.383-0.077,0.535v1.224H18.338z"/>
				<path fill="#FFFFFF" d="M29.813,66.873c0,0.613,0,1.224,0.076,1.684h-1.146l-0.076-0.918l0,0
					c-0.383,0.535-1.148,1.07-2.143,1.07c-1.377,0-2.142-0.994-2.142-1.988c0-1.684,1.453-2.602,4.207-2.602v-0.152
					c0-0.536-0.152-1.607-1.606-1.607c-0.688,0-1.301,0.154-1.836,0.537l-0.307-0.843c0.536-0.383,1.454-0.612,2.295-0.612
					c2.143,0,2.678,1.455,2.678,2.83V66.873z M28.589,64.961c-1.377,0-2.907,0.229-2.907,1.53c0,0.841,0.535,1.224,1.148,1.224
					c0.918,0,1.529-0.535,1.683-1.146c0.076-0.152,0.076-0.308,0.076-0.383V64.961z"/>
				<path fill="#FFFFFF" d="M37.541,58.306v8.415c0,0.611,0,1.301,0.076,1.76h-1.148l-0.077-1.225l0,0
					c-0.382,0.766-1.223,1.377-2.371,1.377c-1.683,0-2.983-1.453-2.983-3.52c0-2.295,1.454-3.747,3.137-3.747
					c1.071,0,1.759,0.534,2.065,1.069l0,0v-4.13H37.541L37.541,58.306z M36.24,64.425c0-0.153,0-0.382-0.076-0.535
					c-0.153-0.765-0.842-1.454-1.836-1.454c-1.301,0-2.066,1.148-2.066,2.678c0,1.455,0.689,2.602,2.066,2.602
					c0.842,0,1.605-0.535,1.836-1.529c0.076-0.154,0.076-0.307,0.076-0.537V64.425z"/>
				<path fill="#FFFFFF" d="M39.836,61.595l1.377,3.901c0.229,0.611,0.383,1.225,0.535,1.76h0.076
					c0.154-0.535,0.383-1.148,0.613-1.76l1.377-3.901h1.299l-2.754,6.962h-1.223l-2.602-6.962H39.836z"/>
				<path fill="#FFFFFF" d="M46.49,60.294c-0.459,0-0.764-0.382-0.764-0.841s0.305-0.766,0.842-0.766
					c0.459,0,0.764,0.383,0.764,0.766C47.332,59.912,47.027,60.294,46.49,60.294L46.49,60.294z M45.879,68.48v-6.963h1.225v6.963
					H45.879z"/>
				<path fill="#FFFFFF" d="M48.785,67.256c0.383,0.23,1.072,0.459,1.684,0.459c0.918,0,1.301-0.459,1.301-0.994
					c0-0.613-0.383-0.918-1.301-1.301c-1.223-0.459-1.836-1.148-1.836-1.989c0-1.147,0.918-2.064,2.371-2.064
					c0.689,0,1.301,0.151,1.684,0.459l-0.307,0.917c-0.305-0.153-0.764-0.383-1.453-0.383c-0.766,0-1.146,0.459-1.146,0.918
					c0,0.612,0.381,0.842,1.301,1.225c1.223,0.459,1.836,1.07,1.836,2.066c0,1.223-0.996,2.064-2.602,2.064
					c-0.766,0-1.453-0.229-1.912-0.459L48.785,67.256z"/>
				<path fill="#FFFFFF" d="M57.201,68.709c-1.836,0-3.365-1.377-3.365-3.596c0-2.295,1.529-3.672,3.443-3.672
					c1.988,0,3.365,1.455,3.365,3.52C60.645,67.562,58.809,68.709,57.201,68.709L57.201,68.709z M57.201,67.715
					c1.225,0,2.143-1.146,2.143-2.678c0-1.147-0.611-2.678-2.064-2.678c-1.455,0-2.143,1.377-2.143,2.678
					C55.137,66.568,55.979,67.715,57.201,67.715L57.201,67.715z"/>
				<path fill="#FFFFFF" d="M61.945,63.736c0-0.84,0-1.529-0.076-2.142h1.07l0.076,1.377h0.076c0.307-0.918,1.072-1.53,1.912-1.53
					c0.154,0,0.23,0,0.383,0.076v1.148c-0.152,0-0.305,0-0.459,0c-0.918,0-1.529,0.688-1.682,1.605c0,0.153-0.078,0.383-0.078,0.612
					v3.673h-1.223V63.736z"/>
			</g>
			<g>
				<g>
					<path fill="#FFFFFF" d="M67.299,61.518c0.078,0,0.23,0,0.459,0c0.23,0,0.383,0,0.459,0.153
						c0.078,0.077,0.154,0.154,0.154,0.306c0,0.154-0.154,0.307-0.23,0.383l0,0c0.076,0.076,0.154,0.154,0.23,0.307
						s0.076,0.383,0.152,0.459h-0.307c0-0.076-0.076-0.153-0.076-0.383c-0.076-0.153-0.076-0.229-0.229-0.229h-0.076v0.611h-0.307
						v-1.607H67.299z M67.605,62.131h0.076c0.154,0,0.23-0.077,0.23-0.23c0-0.152-0.076-0.229-0.23-0.229c-0.076,0-0.152,0-0.152,0
						v0.46H67.605z"/>
				</g>
				<g>
					<path fill="#FFFFFF" d="M66.305,62.283c0,0.842,0.689,1.453,1.453,1.453c0.842,0,1.455-0.688,1.455-1.453
						c0-0.842-0.689-1.453-1.455-1.453C66.994,60.754,66.305,61.441,66.305,62.283z M66.611,62.283c0-0.612,0.535-1.147,1.146-1.147
						c0.613,0,1.148,0.535,1.148,1.147c0,0.613-0.535,1.147-1.148,1.147C67.146,63.431,66.611,62.896,66.611,62.283z"/>
				</g>
			</g>
		</g>
		<g>
			<path fill="#FFFFFF" d="M18.033,14.775h-1.301V14.01h3.596v0.766h-1.301v3.901h-0.918v-3.901H18.033z"/>
			<path fill="#FFFFFF" d="M20.787,14.086h0.994c0.995,0,2.219,0,2.219,1.225c0,0.535-0.383,0.994-0.995,1.071l0,0
				c0.229,0,0.383,0.306,0.459,0.46l0.766,1.835h-1.071l-0.535-1.454c-0.153-0.381-0.229-0.459-0.612-0.459h-0.229v1.913h-0.918
				v-4.591H20.787z M21.781,16.075h0.306c0.459,0,0.995-0.076,0.995-0.611c0-0.536-0.536-0.612-0.995-0.612h-0.306V16.075z"/>
			<path fill="#FFFFFF" d="M26.294,14.086h1.071l1.836,4.667H28.13l-0.382-1.071h-1.913l-0.382,1.071h-0.995L26.294,14.086z
				 M26.831,15.005L26.831,15.005l-0.689,1.912h1.377L26.831,15.005z"/>
			<path fill="#FFFFFF" d="M28.971,14.086h0.995l1.224,3.673l0,0l1.148-3.673h0.918l-1.531,4.667h-1.146L28.971,14.086z"/>
			<path fill="#FFFFFF" d="M33.945,14.086h2.754v0.766h-1.836v1.147h1.684v0.765h-1.684v1.301h1.836v0.766h-2.754V14.086z"/>
			<path fill="#FFFFFF" d="M37.617,14.086h0.918v3.902h1.836v0.765h-2.754V14.086L37.617,14.086z"/>
			<path fill="#FFFFFF" d="M40.982,14.086H41.9v3.902h1.836v0.765h-2.754V14.086z"/>
			<path fill="#FFFFFF" d="M44.35,14.086h2.754v0.766h-1.836v1.147h1.682v0.765h-1.682v1.301h1.836v0.766H44.35V14.086z"/>
			<path fill="#FFFFFF" d="M47.945,14.086h0.994c0.994,0,2.219,0,2.219,1.225c0,0.535-0.383,0.994-0.996,1.071l0,0
				c0.23,0,0.383,0.306,0.459,0.46l0.766,1.835h-1.07l-0.535-1.454c-0.154-0.381-0.23-0.459-0.613-0.459h-0.305v1.913h-0.918V14.086
				z M48.863,16.075h0.305c0.459,0,0.994-0.076,0.994-0.611c0-0.536-0.535-0.612-0.994-0.612h-0.305V16.075z"/>
			<path fill="#FFFFFF" d="M54.6,14.928c-0.307-0.152-0.611-0.229-0.918-0.229c-0.305,0-0.764,0.153-0.764,0.612
				c0,0.842,2.064,0.459,2.064,2.066c0,0.993-0.842,1.376-1.758,1.376c-0.537,0-0.768-0.076-1.227-0.153l0.078-0.841
				c0.305,0.153,0.688,0.306,1.07,0.306s0.842-0.152,0.842-0.612c0-0.918-2.066-0.535-2.066-2.065c0-1.07,0.842-1.453,1.607-1.453
				c0.383,0,0.764,0.076,1.146,0.152L54.6,14.928z"/>
			<path fill="#FFFFFF" d="M55.9,14.086h0.996l-0.613,1.684H55.52L55.9,14.086z"/>
		</g>
		<g>
			<path fill="#FFFFFF" d="M23.311,27.628c-0.612,0.153-1.225,0.229-1.837,0.229c-2.601,0-4.359-1.301-4.359-3.979
				c0-2.754,1.682-4.284,4.359-4.284c0.536,0,1.225,0.077,1.837,0.306l-0.153,1.379c-0.612-0.308-1.147-0.461-1.76-0.461
				c-1.683,0-2.677,1.224-2.677,2.908c0,1.606,0.994,2.83,2.677,2.83c0.612,0,1.378-0.152,1.76-0.307L23.311,27.628z"/>
			<path fill="#FFFFFF" d="M24.458,19.825h1.606v3.212h3.213v-3.212h1.606v7.956h-1.606v-3.52h-3.213v3.52h-1.606V19.825z"/>
			<path fill="#FFFFFF" d="M36.24,19.672c2.526,0,3.901,1.682,3.901,4.131c0,2.447-1.375,4.131-3.901,4.131
				c-2.524,0-3.901-1.684-3.901-4.131C32.338,21.279,33.715,19.672,36.24,19.672z M36.24,26.633c1.606,0,2.219-1.453,2.219-2.906
				c0-1.377-0.689-2.83-2.219-2.83c-1.606,0-2.219,1.453-2.219,2.83C34.021,25.18,34.633,26.633,36.24,26.633z"/>
			<path fill="#FFFFFF" d="M41.441,19.825h1.607v7.956h-1.607V19.825z"/>
			<path fill="#FFFFFF" d="M50.621,27.628c-0.611,0.153-1.223,0.229-1.836,0.229c-2.6,0-4.359-1.301-4.359-3.979
				c0-2.754,1.684-4.284,4.359-4.284c0.537,0,1.225,0.077,1.836,0.306l-0.076,1.379c-0.611-0.308-1.146-0.461-1.76-0.461
				c-1.682,0-2.676,1.224-2.676,2.908c0,1.606,0.994,2.83,2.676,2.83c0.613,0,1.377-0.152,1.76-0.307L50.621,27.628z"/>
			<path fill="#FFFFFF" d="M51.77,19.825h4.744v1.224h-3.137v1.988h2.83v1.225h-2.83v2.218h3.137v1.226H51.77V19.825L51.77,19.825z"
				/>
		</g>
	</g>
</g>
</svg>
