<?xml version="1.0" encoding="UTF-8" standalone="no"?>
<!-- Creator: CorelDRAW 2020 (64-Bit) -->

<svg
   xmlns:dc="http://purl.org/dc/elements/1.1/"
   xmlns:cc="http://creativecommons.org/ns#"
   xmlns:rdf="http://www.w3.org/1999/02/22-rdf-syntax-ns#"
   xmlns:svg="http://www.w3.org/2000/svg"
   xmlns="http://www.w3.org/2000/svg"
   xmlns:sodipodi="http://sodipodi.sourceforge.net/DTD/sodipodi-0.dtd"
   xmlns:inkscape="http://www.inkscape.org/namespaces/inkscape"
   xml:space="preserve"
   width="100%"
   height="100%"
   version="1.1"
   style="shape-rendering:geometricPrecision; text-rendering:geometricPrecision; image-rendering:optimizeQuality; fill-rule:evenodd; clip-rule:evenodd"
   viewBox="0 0 12305.69 9376.63"
   id="svg20"
   sodipodi:docname="Sistemas turnos web.svg"
   inkscape:version="0.92.3 (2405546, 2018-03-11)"><metadata
   id="metadata24"><rdf:RDF><cc:Work
       rdf:about=""><dc:format>image/svg+xml</dc:format><dc:type
         rdf:resource="http://purl.org/dc/dcmitype/StillImage" /><dc:title></dc:title></cc:Work></rdf:RDF></metadata><sodipodi:namedview
   pagecolor="#ffffff"
   bordercolor="#666666"
   borderopacity="1"
   objecttolerance="10"
   gridtolerance="10"
   guidetolerance="10"
   inkscape:pageopacity="0"
   inkscape:pageshadow="2"
   inkscape:window-width="1605"
   inkscape:window-height="824"
   id="namedview22"
   showgrid="false"
   inkscape:zoom="0.025168957"
   inkscape:cx="6152.845"
   inkscape:cy="4688.315"
   inkscape:window-x="233"
   inkscape:window-y="160"
   inkscape:window-maximized="0"
   inkscape:current-layer="svg20" />
 <defs
   id="defs4">
  <style
   type="text/css"
   id="style2">
   <![CDATA[
    .fil1 {fill:black}
    .fil0 {fill:black}
   ]]>
  </style>
 </defs>
 <g
   id="Capa_x0020_1"
   style="fill:#ffffff">
  <metadata
   id="CorelCorpID_0Corel-Layer" />
  <g
   id="_2877639090672"
   style="fill:#ffffff">
   <path
   class="fil0"
   d="M1915.03 8897.87c0,-241.26 383.01,-257.61 383.01,0 0,261.05 -383.01,261.05 -383.01,0zm-1579.9 -430.88l0 -4643.95c0,-56.03 39.73,-95.75 95.75,-95.75l3375.25 0c55.15,0 71.81,16.66 71.81,71.82l0 4715.76c0,56.03 -39.72,95.75 -95.75,95.75 -495.78,0 -3158.79,37.64 -3423.11,-23.93 -12.52,-53.7 -23.95,-55.05 -23.95,-119.7zm1292.65 -5050.89c14.24,-53.35 5.59,-71.82 71.82,-71.82l837.82 0c67.41,0 44.32,10.35 71.82,47.88 -14.25,53.34 -5.59,71.82 -71.82,71.82l-837.82 0c-67.41,0 -44.33,-10.36 -71.82,-47.88zm-1627.78 -143.63l0 5769.03c0,149.48 185.65,335.13 335.13,335.13l3566.75 0c184.55,0 335.13,-214.31 335.13,-406.94l0 -5625.41c0,-192.63 -150.58,-406.94 -335.13,-406.94l-3566.75 0c-149.48,0 -335.13,185.64 -335.13,335.13z"
   id="path7"
   style="fill:#ffffff" />
   <path
   class="fil0"
   d="M5912.67 8754.25c-258.1,123.83 -1149.02,-103.87 -1149.02,119.69 0,363.21 -49.87,478.76 143.63,478.76l4452.44 0c193.49,0 143.63,-115.55 143.63,-478.76 0,-126.77 -158.21,-97.03 -287.06,-95.95 -203.22,1.7 -1146.2,27.15 -1197.09,-23.74 -69.8,-145.47 55.4,-478.76 -119.69,-478.76l-1867.16 0c-175.09,0 -49.89,333.29 -119.68,478.76z"
   id="path9"
   style="fill:#ffffff" />
  </g>
  <g
   id="_2877639091920"
   style="fill:#ffffff">
   <path
   class="fil0"
   d="M1915.03 8897.87c0,-241.26 383.01,-257.61 383.01,0 0,261.05 -383.01,261.05 -383.01,0zm-1579.9 -430.88l0 -4643.95c0,-56.03 39.73,-95.75 95.75,-95.75l3375.25 0c55.15,0 71.81,16.66 71.81,71.82l0 4715.76c0,56.03 -39.72,95.75 -95.75,95.75 -495.78,0 -3158.79,37.64 -3423.11,-23.93 -12.52,-53.7 -23.95,-55.05 -23.95,-119.7zm1292.65 -5050.89c14.24,-53.35 5.59,-71.82 71.82,-71.82l837.82 0c67.41,0 44.32,10.35 71.82,47.88 -14.25,53.34 -5.59,71.82 -71.82,71.82l-837.82 0c-67.41,0 -44.33,-10.36 -71.82,-47.88zm-1627.78 -143.63l0 5769.03c0,149.48 185.65,335.13 335.13,335.13l3566.75 0c184.55,0 335.13,-214.31 335.13,-406.94l0 -5625.41c0,-192.63 -150.58,-406.94 -335.13,-406.94l-3566.75 0c-149.48,0 -335.13,185.64 -335.13,335.13z"
   id="path12"
   style="fill:#ffffff" />
   <path
   class="fil0"
   d="M5912.67 8754.25c-258.1,123.83 -1149.02,-103.87 -1149.02,119.69 0,363.21 -49.87,478.76 143.63,478.76l4452.44 0c193.49,0 143.63,-115.55 143.63,-478.76 0,-126.77 -158.21,-97.03 -287.06,-95.95 -203.22,1.7 -1146.2,27.15 -1197.09,-23.74 -69.8,-145.47 55.4,-478.76 -119.69,-478.76l-1867.16 0c-175.09,0 -49.89,333.29 -119.68,478.76z"
   id="path14"
   style="fill:#ffffff" />
  </g>
  <path
   class="fil1"
   d="M6970.19 7305.68c-47.34,0 -68.05,5.52 -100.05,-11.77 -36,-19.45 -22.15,1.75 -62.54,-27.98l-63.16 -53.99c-4.08,-4.9 -2.75,-3.84 -6.82,-9.16 -16.41,-21.47 -15.25,-12.92 -23.12,-35.44 -22.17,-63.46 -26.52,-6.62 -26.52,-143.87 0,-59.06 26.01,-121.07 68.97,-160l43.92 -35.94c15.52,-11.97 2.9,-5.15 20.22,-11.75 77.54,-29.51 14.83,-26.61 159.75,-26.61 43.36,0 45.44,10.97 64.97,20.23 8.07,3.83 15.31,4.9 23.28,8.66l48.26 36.96c7.76,7.88 7.89,7.84 15.64,16.3 14.68,16.05 41.79,49.93 47.76,69.38 3.24,10.55 1.46,12.43 3.98,22.65 9.86,40.08 19.75,2.8 19.75,108.04l-28.72 88.43 -41.96 59.21c-4.56,5.28 -2.71,3.71 -7.22,8.75l-30.86 27.71c-9.74,4.98 -7.61,1.61 -18.46,8.16 -60.01,36.23 -28.45,10.65 -62.25,28.28 -16.78,8.76 -19.75,13.75 -44.82,13.75zm-5410.04 -6741.25l0 1767.85c0,14.98 18.42,58.57 27.8,68.04 12.01,12.13 25.25,9.48 41.95,16.62 12.7,5.44 10.4,11.18 31.42,11.18l298.19 0c17.45,0 31.14,-9.64 46.77,-17.12 14.88,-7.13 21.95,-20.76 31.2,-38.03 15.82,-29.55 7.22,-91.37 7.22,-131.21l0 -1379.14c0,-60.42 -11.3,-259.8 3.84,-305.01 6.39,-19.09 7.84,-14.92 21.27,-31.97l4.74 -5.92c16.44,-18.53 45.44,-37.59 67.62,-44.19 17.44,-5.2 41.55,-6.95 62.28,-6.95l9467.58 0c22.25,0 49.75,1.31 68.28,6.27l85.74 68.69c6.63,17.81 21.7,41.21 21.7,58.17l0 5852c0,28.57 -75.09,15.97 -95.84,15.97l-6592.17 0c-68.05,0 -104.36,-11.55 -161.42,14.29 -28.98,13.13 -27.86,6.34 -59.36,25.85l-75.11 68.65c-5.25,8.3 -5.1,10.96 -8.73,17.9l-12.65 19.3c-10.58,18.28 -5.38,23.78 -14.55,44.02 -9.19,20.31 -13.2,16.6 -14.41,44.17 -5.77,131.17 -15.3,869.92 2.41,929.68l19.33 49.88c5.62,23.52 16.5,34.74 30.19,55.01l52.47 54.03c0.91,0.66 2.28,1.46 3.21,2.11 16.05,11.01 83.71,48.92 105.5,48.92l6757.24 0c42.58,0 58.16,-16.71 99.72,-22.74l104.18 -44.92c7.77,-3.73 12.3,-2.93 23.25,-8.7l155.63 -126.58c4.98,-5.15 10.25,-10.86 15.36,-16.59 12.94,-14.52 14.64,-21.84 26.62,-37.28 6.35,-8.19 1.65,-1.06 6.98,-9 4.98,-7.41 2.11,-3.99 5.85,-10.12l71.52 -146.81c1.83,-10.38 1.53,-18.35 3.88,-28.06 5.26,-21.78 8.73,-3.52 8.84,-22.19l0 -0.92 0 -6901 -40.26 -119.48c-46.88,-99.02 -126.39,-195.74 -221.57,-252.34l-28.05 -19.88c-10.02,-5.22 -10.06,-3.03 -21.81,-10.13l-93.21 -39.92c-62.36,-8.81 -28.22,-26.83 -175.51,-26.83l-9563.43 0c-30.22,0 -114.14,3.24 -132.37,11.39 -12.59,5.63 -6.84,6.26 -20.56,11.4 -20.05,7.5 -39.04,4.22 -58.52,16.03 -17.35,10.53 0.52,3.49 -25.84,11.42 -30.93,9.31 -47.29,20.56 -70.13,36.37l-59.11 42.07c-0.88,0.68 -2.08,1.68 -2.94,2.38l-104.98 108.02c-0.7,0.84 -1.83,1.94 -2.54,2.78l-17.55 25.05c-15.17,22 -32.64,44.56 -41.02,70.8 -6.95,21.77 -16.19,24.08 -22.06,47.16 -7.58,29.81 -14.7,33.52 -20.41,54.13 -5.31,19.17 -5.17,45.27 -8.45,66.11 -3.78,24.06 -15.22,28.99 -15.22,59.32z"
   id="path17"
   style="fill:#ffffff" />
 </g>
</svg>