<?xml version="1.0" encoding="UTF-8" standalone="no"?>
<svg
   xmlns:dc="http://purl.org/dc/elements/1.1/"
   xmlns:cc="http://creativecommons.org/ns#"
   xmlns:rdf="http://www.w3.org/1999/02/22-rdf-syntax-ns#"
   xmlns:svg="http://www.w3.org/2000/svg"
   xmlns="http://www.w3.org/2000/svg"
   xmlns:sodipodi="http://sodipodi.sourceforge.net/DTD/sodipodi-0.dtd"
   xmlns:inkscape="http://www.inkscape.org/namespaces/inkscape"
   sodipodi:docname="turnos-white.svg"
   inkscape:version="0.92.3 (2405546, 2018-03-11)"
   id="svg8"
   version="1.1"
   viewBox="0 0 54.504165 47.625001"
   height="180"
   width="206">
  <defs
     id="defs2">
    <style
       id="style2"
       type="text/css"><![CDATA[
    .fil1 {fill:black}
    .fil0 {fill:black}
   ]]></style>
  </defs>
  <sodipodi:namedview
     inkscape:window-maximized="0"
     inkscape:window-y="190"
     inkscape:window-x="80"
     inkscape:window-height="707"
     inkscape:window-width="1214"
     showgrid="false"
     inkscape:document-rotation="0"
     inkscape:current-layer="g820"
     inkscape:document-units="mm"
     inkscape:cy="220.65864"
     inkscape:cx="280.00635"
     inkscape:zoom="0.9899495"
     inkscape:pageshadow="2"
     inkscape:pageopacity="0.0"
     borderopacity="1.0"
     bordercolor="#666666"
     pagecolor="#ffffff"
     id="base"
     fit-margin-top="0"
     fit-margin-left="0"
     fit-margin-right="0"
     fit-margin-bottom="0"
     units="px" />
  <metadata
     id="metadata5">
    <rdf:RDF>
      <cc:Work
         rdf:about="">
        <dc:format>image/svg+xml</dc:format>
        <dc:type
           rdf:resource="http://purl.org/dc/dcmitype/StillImage" />
        <dc:title></dc:title>
      </cc:Work>
    </rdf:RDF>
  </metadata>
  <g
     id="layer1"
     inkscape:groupmode="layer"
     inkscape:label="Capa 1"
     transform="translate(-32.674657,-175.99839)">
    <g
       style="clip-rule:evenodd;fill-rule:evenodd;image-rendering:optimizeQuality;shape-rendering:geometricPrecision;text-rendering:geometricPrecision"
       id="g839"
       transform="matrix(0.11499542,0,0,0.11499542,-1616.7999,-798.58994)" />
    <g
       id="g820"
       transform="matrix(0.39785687,0,0,0.39785687,20.667498,134.01926)">
      <path
         sodipodi:nodetypes="cccccccccc"
         inkscape:connector-curvature="0"
         id="path10"
         style="fill:none;fill-rule:evenodd;stroke:#ffffff;stroke-width:18.99943368;stroke-opacity:1"
         d="m 286.8457,524.1582 c -87.08523,-1.5e-4 -157.68179,70.59641 -157.68164,157.68164 6.1e-4,83.05338 64.4238,151.86821 147.29688,157.33789 l 0.1582,0.34375 h 10.22656 l 227.24498,-8e-5 -33.23047,-71.77539 -61.7899,8e-5 c 16.61333,-25.57158 25.45537,-55.41185 25.45508,-85.90625 1.5e-4,-87.08447 -70.59522,-157.68072 -157.67969,-157.68164 z"
         transform="scale(0.26458333)" />
      <path
         inkscape:connector-curvature="0"
         id="rect31"
         style="fill:none;stroke:#ffffff;stroke-width:5.02693343;stroke-miterlimit:4;stroke-dasharray:none;stroke-opacity:1"
         d="m 135.10085,108.91758 0.38345,36.58894 3.07504,-0.0322 c 3.19817,5.31164 2.544,15.34603 10.92308,15.25339 8.37907,-0.0928 6.8393,-9.10674 10.60101,-15.47896 l 3.07466,-0.0322 -0.38345,-36.58894 -2.04019,0.0214 c -3.53917,5.12535 -3.61724,16.65299 -11.62158,16.81622 -8.00431,0.16329 -8.06387,-10.69093 -11.97144,-16.56897 z"
         sodipodi:nodetypes="ccczcccczcc" />
      <path
         sodipodi:nodetypes="cc"
         inkscape:connector-curvature="0"
         id="path841"
         d="m 119.33585,203.52248 7.81763,18.57523"
         style="fill:none;stroke:#ffffff;stroke-width:5.02693343;stroke-linecap:butt;stroke-linejoin:miter;stroke-opacity:1" />
    </g>
  </g>
</svg>
